<svg width="0" height="0" class="hidden">
  <symbol viewBox="0 0 320 208" fill="none" xmlns="http://www.w3.org/2000/svg" id="api">
    <path d="M179.5 78.5h100" stroke="#BBC4D3"></path>
    <path d="M307.5.5h-65c-6.627 0-12 5.373-12 12v152c0 6.627 5.373 12 12 12h65c6.627 0 12-5.373 12-12v-152c0-6.627-5.373-12-12-12z" fill="#fff" stroke="#D6DBE4"></path>
    <path fill-rule="evenodd" clip-rule="evenodd" d="M276.45 44.755l3.25-5.63a1.499 1.499 0 0 1 2.49-.163 1.5 1.5 0 0 1 .109 1.663l-3.25 5.63-2.599-1.5zm-7.5 12.99l-3.25 5.63a1.5 1.5 0 1 0 2.599 1.5l3.25-5.63-2.599-1.5zM281.5 50.5h6.5a1.502 1.502 0 0 1 1.061 2.56 1.5 1.5 0 0 1-1.061.44h-6.5v-3zm-15 0H260a1.502 1.502 0 0 0-1.061 2.56 1.5 1.5 0 0 0 1.061.44h6.5" fill="#5C9FFF"></path>
    <path d="M266.5 50.5H260a1.502 1.502 0 0 0-1.061 2.56 1.5 1.5 0 0 0 1.061.44h6.5m9.95-8.745l3.25-5.63a1.499 1.499 0 0 1 2.49-.163 1.5 1.5 0 0 1 .109 1.663l-3.25 5.63-2.599-1.5zm-7.5 12.99l-3.25 5.63a1.5 1.5 0 1 0 2.599 1.5l3.25-5.63-2.599-1.5zM281.5 50.5h6.5a1.502 1.502 0 0 1 1.061 2.56 1.5 1.5 0 0 1-1.061.44h-6.5v-3z" stroke="#164798" stroke-linecap="round"></path>
    <path fill-rule="evenodd" clip-rule="evenodd" d="M279.049 57.745l3.25 5.63a1.504 1.504 0 0 1-.102 1.67 1.515 1.515 0 0 1-.999.576 1.5 1.5 0 0 1-1.497-.746l-3.25-5.63 2.598-1.5zm-7.5-12.99l-3.25-5.63a1.5 1.5 0 0 0-2.598 1.5l3.25 5.63" fill="#5C9FFF"></path>
    <path d="M271.549 44.755l-3.25-5.63a1.5 1.5 0 0 0-2.598 1.5l3.25 5.63m10.098 11.49l3.25 5.63a1.504 1.504 0 0 1-.102 1.67 1.515 1.515 0 0 1-.999.576 1.5 1.5 0 0 1-1.497-.746l-3.25-5.63 2.598-1.5z" stroke="#164798" stroke-linecap="round"></path>
    <path d="M274 64c6.627 0 12-5.373 12-12s-5.373-12-12-12-12 5.373-12 12 5.373 12 12 12z" fill="#5C9FFF" stroke="#164798" stroke-linecap="round"></path>
    <path fill-rule="evenodd" clip-rule="evenodd" d="M272.5 44.5V38a1.501 1.501 0 0 1 3 0v6.5h-3zm0 15V66a1.501 1.501 0 0 0 3 0v-6.5h-3zm7.245-12.55l5.63-3.25a1.503 1.503 0 0 1 2.05.55c.098.17.162.358.188.554a1.515 1.515 0 0 1-.298 1.11c-.12.155-.269.286-.44.385l-5.63 3.25-1.5-2.599zm-12.99 7.5l-5.63 3.25a1.499 1.499 0 0 0-.549 2.05 1.497 1.497 0 0 0 2.049.549l5.63-3.25" fill="#5C9FFF"></path>
    <path d="M266.755 54.45l-5.63 3.25a1.499 1.499 0 0 0-.549 2.05 1.497 1.497 0 0 0 2.049.549l5.63-3.25M272.5 44.5V38a1.501 1.501 0 0 1 3 0v6.5h-3zm0 15V66a1.501 1.501 0 0 0 3 0v-6.5h-3zm7.245-12.55l5.63-3.25a1.503 1.503 0 0 1 2.05.55c.098.17.162.358.188.554a1.515 1.515 0 0 1-.298 1.11c-.12.155-.269.286-.44.385l-5.63 3.25-1.5-2.599z" stroke="#164798" stroke-linecap="round"></path>
    <path fill-rule="evenodd" clip-rule="evenodd" d="M281.245 54.451l5.63 3.25a1.496 1.496 0 0 1 .746 1.497 1.489 1.489 0 0 1-.576.999 1.504 1.504 0 0 1-1.67.102l-5.63-3.25 1.5-2.598zm-12.99-7.5l-5.63-3.25a1.5 1.5 0 0 0-1.5 2.598l5.63 3.25" fill="#5C9FFF"></path>
    <path d="M268.255 46.951l-5.63-3.25a1.5 1.5 0 0 0-1.5 2.598l5.63 3.25m14.49 4.902l5.63 3.25a1.496 1.496 0 0 1 .746 1.497 1.489 1.489 0 0 1-.576.999 1.504 1.504 0 0 1-1.67.102l-5.63-3.25 1.5-2.598z" stroke="#164798" stroke-linecap="round"></path>
    <path fill-rule="evenodd" clip-rule="evenodd" d="M304 86.5h-58a4.491 4.491 0 0 0-4.159 2.778A4.485 4.485 0 0 0 241.5 91v19c0 1.243.504 2.368 1.318 3.182A4.49 4.49 0 0 0 246 114.5h58a4.49 4.49 0 0 0 4.159-2.777A4.49 4.49 0 0 0 308.5 110V91a4.485 4.485 0 0 0-1.318-3.182A4.48 4.48 0 0 0 304 86.5z" fill="#5C9FFF" stroke="#164798" stroke-linecap="round"></path>
    <path fill-rule="evenodd" clip-rule="evenodd" d="M256.5 94.5h-4v4h-4v4h4v4h4v-4h4v-4h-4v-4z" fill="#fff" stroke="#164798" stroke-linecap="round"></path>
    <path d="M267 103.5h33m-33-6h21-21z" stroke="#164798"></path>
    <path fill-rule="evenodd" clip-rule="evenodd" d="M230.5 64.5a13.956 13.956 0 0 0-9.9 4.1 13.962 13.962 0 0 0-4.1 9.9 13.96 13.96 0 0 0 4.1 9.9 13.959 13.959 0 0 0 9.9 4.1v-28z" fill="#D6DBE4" stroke="#BBC4D3"></path>
    <path d="M299 20.5h10m-10-8h10-10zm0 4h10-10z" stroke="#D6DBE4"></path>
    <path d="M248 144.5h31m-31-16h52-52zm0 8h52-52z" stroke="#164798"></path>
    <path fill-rule="evenodd" clip-rule="evenodd" d="M157 .5H12C8.824.5 5.95 1.787 3.868 3.868A11.464 11.464 0 0 0 .5 12v195.5h168V12c0-3.176-1.287-6.05-3.368-8.132A11.463 11.463 0 0 0 157 .5z" fill="#fff" stroke="#D6DBE4"></path>
    <path fill-rule="evenodd" clip-rule="evenodd" d="M157 .5H12C8.824.5 5.95 1.787 3.868 3.868A11.464 11.464 0 0 0 .5 12v11.5h168V12c0-3.176-1.287-6.05-3.368-8.132A11.463 11.463 0 0 0 157 .5z" fill="#EAEEF2" stroke="#D6DBE4"></path>
    <path fill-rule="evenodd" clip-rule="evenodd" d="M168.5 64.5a13.96 13.96 0 0 1 9.9 4.1 13.961 13.961 0 0 1 4.1 9.9 13.96 13.96 0 0 1-4.1 9.9 13.96 13.96 0 0 1-9.9 4.1v-28z" fill="#D6DBE4" stroke="#BBC4D3"></path>
    <path fill-rule="evenodd" clip-rule="evenodd" d="M34 47.5h-9a4.485 4.485 0 0 0-3.182 1.318A4.484 4.484 0 0 0 20.5 52c0 1.243.504 2.368 1.318 3.182A4.484 4.484 0 0 0 25 56.5h9a4.485 4.485 0 0 0 3.182-1.318A4.484 4.484 0 0 0 38.5 52a4.485 4.485 0 0 0-1.318-3.182A4.486 4.486 0 0 0 34 47.5zm48 0H48a4.485 4.485 0 0 0-3.182 1.318A4.486 4.486 0 0 0 43.5 52c0 1.243.504 2.368 1.318 3.182A4.484 4.484 0 0 0 48 56.5h34a4.485 4.485 0 0 0 3.182-1.318A4.484 4.484 0 0 0 86.5 52a4.485 4.485 0 0 0-1.318-3.182A4.486 4.486 0 0 0 82 47.5zm60 0H96a4.485 4.485 0 0 0-3.182 1.318A4.484 4.484 0 0 0 91.5 52c0 1.243.504 2.368 1.318 3.182A4.484 4.484 0 0 0 96 56.5h46a4.491 4.491 0 0 0 4.159-2.778A4.484 4.484 0 0 0 146.5 52a4.485 4.485 0 0 0-1.318-3.182A4.48 4.48 0 0 0 142 47.5zm-76 18H25a4.485 4.485 0 0 0-3.182 1.318A4.484 4.484 0 0 0 20.5 70c0 1.243.504 2.368 1.318 3.182A4.484 4.484 0 0 0 25 74.5h41a4.485 4.485 0 0 0 3.182-1.318A4.484 4.484 0 0 0 70.5 70a4.485 4.485 0 0 0-1.318-3.182A4.486 4.486 0 0 0 66 65.5zm29 0H80a4.485 4.485 0 0 0-3.182 1.318A4.484 4.484 0 0 0 75.5 70c0 1.243.504 2.368 1.318 3.182A4.484 4.484 0 0 0 80 74.5h15a4.485 4.485 0 0 0 3.182-1.318A4.484 4.484 0 0 0 99.5 70a4.485 4.485 0 0 0-1.318-3.182A4.486 4.486 0 0 0 95 65.5zm35 0h-21a4.491 4.491 0 0 0-4.159 2.778A4.485 4.485 0 0 0 104.5 70c0 1.243.504 2.368 1.318 3.182A4.479 4.479 0 0 0 109 74.5h21a4.491 4.491 0 0 0 4.159-2.778A4.484 4.484 0 0 0 134.5 70a4.485 4.485 0 0 0-1.318-3.182A4.48 4.48 0 0 0 130 65.5zm-84 18H25a4.485 4.485 0 0 0-3.182 1.318A4.484 4.484 0 0 0 20.5 88c0 1.243.504 2.368 1.318 3.182A4.484 4.484 0 0 0 25 92.5h21a4.485 4.485 0 0 0 3.182-1.318A4.484 4.484 0 0 0 50.5 88a4.485 4.485 0 0 0-1.318-3.182A4.484 4.484 0 0 0 46 83.5zm61 0H60a4.485 4.485 0 0 0-3.182 1.318A4.484 4.484 0 0 0 55.5 88c0 1.243.504 2.368 1.318 3.182A4.484 4.484 0 0 0 60 92.5h47a4.491 4.491 0 0 0 4.159-2.778A4.484 4.484 0 0 0 111.5 88a4.485 4.485 0 0 0-1.318-3.182A4.479 4.479 0 0 0 107 83.5zm38 0h-24a4.491 4.491 0 0 0-4.159 2.778A4.485 4.485 0 0 0 116.5 88c0 1.243.504 2.368 1.318 3.182A4.479 4.479 0 0 0 121 92.5h24a4.491 4.491 0 0 0 4.159-2.778A4.484 4.484 0 0 0 149.5 88a4.485 4.485 0 0 0-1.318-3.182A4.479 4.479 0 0 0 145 83.5zm-94 54H25a4.485 4.485 0 0 0-3.182 1.318A4.479 4.479 0 0 0 20.5 142a4.508 4.508 0 0 0 2.777 4.159A4.485 4.485 0 0 0 25 146.5h26a4.484 4.484 0 0 0 3.182-1.318A4.479 4.479 0 0 0 55.5 142a4.491 4.491 0 0 0-2.778-4.159A4.484 4.484 0 0 0 51 137.5zm37 0H65a4.485 4.485 0 0 0-3.182 1.318A4.479 4.479 0 0 0 60.5 142a4.508 4.508 0 0 0 2.778 4.159A4.485 4.485 0 0 0 65 146.5h23a4.484 4.484 0 0 0 3.182-1.318A4.479 4.479 0 0 0 92.5 142a4.491 4.491 0 0 0-2.778-4.159A4.484 4.484 0 0 0 88 137.5zm47 0h-33a4.49 4.49 0 0 0-4.159 2.777A4.491 4.491 0 0 0 97.5 142a4.51 4.51 0 0 0 2.777 4.159 4.49 4.49 0 0 0 1.723.341h33a4.49 4.49 0 0 0 4.159-2.777A4.49 4.49 0 0 0 139.5 142a4.49 4.49 0 0 0-2.777-4.159A4.49 4.49 0 0 0 135 137.5zm-102 18h-8a4.485 4.485 0 0 0-3.182 1.318A4.479 4.479 0 0 0 20.5 160a4.508 4.508 0 0 0 2.777 4.159A4.485 4.485 0 0 0 25 164.5h8a4.484 4.484 0 0 0 3.182-1.318A4.479 4.479 0 0 0 37.5 160a4.491 4.491 0 0 0-2.778-4.159A4.484 4.484 0 0 0 33 155.5zm35 0H47a4.485 4.485 0 0 0-3.182 1.318A4.48 4.48 0 0 0 42.5 160a4.508 4.508 0 0 0 2.778 4.159A4.485 4.485 0 0 0 47 164.5h21a4.484 4.484 0 0 0 3.182-1.318A4.479 4.479 0 0 0 72.5 160a4.491 4.491 0 0 0-2.778-4.159A4.484 4.484 0 0 0 68 155.5zm47 0H82a4.485 4.485 0 0 0-3.182 1.318A4.479 4.479 0 0 0 77.5 160a4.508 4.508 0 0 0 2.778 4.159A4.485 4.485 0 0 0 82 164.5h33a4.49 4.49 0 0 0 4.159-2.777A4.49 4.49 0 0 0 119.5 160a4.49 4.49 0 0 0-2.777-4.159A4.49 4.49 0 0 0 115 155.5zm-82 18h-8a4.485 4.485 0 0 0-3.182 1.318A4.479 4.479 0 0 0 20.5 178a4.508 4.508 0 0 0 2.777 4.159A4.485 4.485 0 0 0 25 182.5h8a4.484 4.484 0 0 0 3.182-1.318A4.479 4.479 0 0 0 37.5 178a4.491 4.491 0 0 0-2.778-4.159A4.484 4.484 0 0 0 33 173.5zm45 0H47a4.485 4.485 0 0 0-3.182 1.318A4.48 4.48 0 0 0 42.5 178a4.508 4.508 0 0 0 2.778 4.159A4.485 4.485 0 0 0 47 182.5h31a4.484 4.484 0 0 0 3.182-1.318A4.479 4.479 0 0 0 82.5 178a4.491 4.491 0 0 0-2.778-4.159A4.484 4.484 0 0 0 78 173.5zm47 0H92a4.484 4.484 0 0 0-3.182 1.318A4.479 4.479 0 0 0 87.5 178a4.508 4.508 0 0 0 2.778 4.159A4.484 4.484 0 0 0 92 182.5h33a4.49 4.49 0 0 0 4.159-2.777A4.49 4.49 0 0 0 129.5 178a4.49 4.49 0 0 0-2.777-4.159A4.49 4.49 0 0 0 125 173.5zm-65-72H25a4.485 4.485 0 0 0-3.182 1.318A4.479 4.479 0 0 0 20.5 106a4.508 4.508 0 0 0 2.777 4.159A4.485 4.485 0 0 0 25 110.5h35a4.484 4.484 0 0 0 3.182-1.318A4.479 4.479 0 0 0 64.5 106a4.491 4.491 0 0 0-2.778-4.159A4.484 4.484 0 0 0 60 101.5zm-21 18H25a4.485 4.485 0 0 0-3.182 1.318A4.479 4.479 0 0 0 20.5 124a4.508 4.508 0 0 0 2.777 4.159A4.485 4.485 0 0 0 25 128.5h14a4.484 4.484 0 0 0 3.182-1.318A4.479 4.479 0 0 0 43.5 124a4.491 4.491 0 0 0-2.778-4.159A4.484 4.484 0 0 0 39 119.5zm44 0H53a4.485 4.485 0 0 0-3.182 1.318A4.48 4.48 0 0 0 48.5 124a4.508 4.508 0 0 0 2.778 4.159A4.485 4.485 0 0 0 53 128.5h30a4.484 4.484 0 0 0 3.182-1.318A4.479 4.479 0 0 0 87.5 124a4.491 4.491 0 0 0-2.778-4.159A4.484 4.484 0 0 0 83 119.5zm44 0H97a4.484 4.484 0 0 0-3.182 1.318A4.479 4.479 0 0 0 92.5 124a4.508 4.508 0 0 0 2.778 4.159A4.484 4.484 0 0 0 97 128.5h30a4.49 4.49 0 0 0 4.159-2.777A4.49 4.49 0 0 0 131.5 124a4.49 4.49 0 0 0-2.777-4.159A4.49 4.49 0 0 0 127 119.5zm-35-18H74a4.485 4.485 0 0 0-3.182 1.318A4.479 4.479 0 0 0 69.5 106a4.508 4.508 0 0 0 2.778 4.159A4.485 4.485 0 0 0 74 110.5h18a4.484 4.484 0 0 0 3.182-1.318A4.479 4.479 0 0 0 96.5 106a4.491 4.491 0 0 0-2.778-4.159A4.484 4.484 0 0 0 92 101.5zm45 0h-31a4.49 4.49 0 0 0-4.159 2.777A4.49 4.49 0 0 0 101.5 106c0 1.243.504 2.368 1.318 3.182A4.49 4.49 0 0 0 106 110.5h31a4.49 4.49 0 0 0 4.159-2.777A4.49 4.49 0 0 0 141.5 106a4.49 4.49 0 0 0-2.777-4.159A4.49 4.49 0 0 0 137 101.5z" fill="#F1F4F9" stroke="#E0E6ED"></path>
  </symbol>
  <symbol viewBox="0 0 12 11" fill="none" xmlns="http://www.w3.org/2000/svg" id="arrow-right">
    <path d="M8.586 4L6.293 1.707A1 1 0 0 1 7.707.293l4 4a1 1 0 0 1 0 1.414l-4 4a1 1 0 1 1-1.414-1.414L8.586 6H1a1 1 0 0 1 0-2h7.586z" fill="#5C9FFF"></path>
  </symbol>
  <symbol viewBox="0 0 139 28" fill="none" xmlns="http://www.w3.org/2000/svg" id="dovera">
    <path d="M59.986 9.132c-2.7 0-4.894 2.194-4.894 4.818 0 2.745 2.163 4.937 4.881 4.944A4.898 4.898 0 0 0 64.854 14c0-2.666-2.18-4.855-4.868-4.868zM13.975 27.9C6.306 27.9.075 21.67.075 14 .076 6.332 6.307.1 13.976.1h13.899V14c-.025 7.694-6.23 13.9-13.9 13.9zm8.677-16.497h-6.079v-6.08h-5.222v6.08H5.272v5.221h6.08v6.08h5.221v-6.08h6.08v-5.22h-.001zm10.418-6.08h6.66c4.59 0 8.551 4.011 8.551 8.678 0 4.692-3.96 8.703-8.551 8.703h-6.66V5.323zm5.55 13.546c1.69 0 2.775-.454 3.708-1.463.807-.882 1.261-2.119 1.261-3.405 0-1.286-.454-2.497-1.261-3.38-.908-1.01-1.993-1.463-3.708-1.463h-1.034v9.711h1.034zM67.326 7.946A9.15 9.15 0 0 1 69.596 14c0 2.9-1.311 5.55-3.506 7.29-1.715 1.337-3.758 1.968-6.18 1.968-5.474 0-9.535-4.01-9.535-9.435 0-2.699 1.337-5.398 3.506-7.113 1.614-1.287 3.834-1.968 6.105-1.968 3.001.026 5.473 1.085 7.34 3.204zm11.755 7.946l4.213-10.57h4.893l-7.39 17.38H77.29L70 5.35h4.919l4.162 10.544zm15.791-6.735v2.9h5.07v3.835h-5.07v3.002h7.643v3.81H90.357V5.323h12.158v3.833h-7.643zm24.67 13.546h-5.625l-4.288-6.66v6.66h-4.515V5.323h7.012c1.968 0 3.254.48 4.263 1.538.934.984 1.488 2.397 1.488 3.834 0 1.59-.63 3.078-1.664 3.936-.58.48-1.11.731-2.145.958l5.474 7.114zm-9.08-9.586c.857 0 1.513-.15 1.916-.48.505-.352.858-1.059.858-1.69 0-.63-.353-1.336-.858-1.69-.428-.302-1.06-.479-1.917-.479h-.832v4.34h.833zm16.37 6.56l-1.185 3.026h-4.768l6.66-17.355h4.919l6.533 17.355h-4.818l-1.11-3.027h-6.231zm3.154-8.98l-1.892 5.548h3.758l-1.866-5.55v.001zm-70-10.57c1.64 0 3.279.251 4.792.731l-1.034 2.85a12.455 12.455 0 0 0-7.517 0L55.193.858a15.868 15.868 0 0 1 4.793-.732z" fill="#7B8BA5"></path>
  </symbol>
  <symbol viewBox="0 0 320 208" fill="none" xmlns="http://www.w3.org/2000/svg" id="embed-anywhere">
    <g clip-path="url(#clip0)">
      <path d="M198 72H10C4.477 72 0 76.477 0 82v64c0 5.523 4.477 10 10 10h188c5.523 0 10-4.477 10-10V82c0-5.523-4.477-10-10-10z" fill="#112950" stroke="#7B8BA5" stroke-width="2" stroke-dasharray="7 7"></path>
      <path d="M197.5.5h-187C4.977.5.5 4.977.5 10.5v33c0 5.523 4.477 10 10 10h187c5.523 0 10-4.477 10-10v-33c0-5.523-4.477-10-10-10z" fill="#324B72" stroke="#49638C"></path>
      <path fill-rule="evenodd" clip-rule="evenodd" d="M28 92.707L18.707 102 28 111.293 30.293 109l-7-7 7-7L28 92.707zm14 0L51.293 102 42 111.293 39.707 109l7-7-7-7L42 92.707z" fill="#324B72" stroke="#49638C"></path>
      <path d="M309.5.5h-73c-5.523 0-10 4.477-10 10v63c0 5.523 4.477 10 10 10h73c5.523 0 10-4.477 10-10v-63c0-5.523-4.477-10-10-10zm0 102h-73c-5.523 0-10 4.477-10 10v33c0 5.523 4.477 10 10 10h73c5.523 0 10-4.477 10-10v-33c0-5.523-4.477-10-10-10z" fill="#324B72" stroke="#49638C"></path>
      <path opacity=".344" fill-rule="evenodd" clip-rule="evenodd" d="M251 92C166 41.333 107.5 16 75.5 16 27.5 16 0 58.5 0 84v62c0 5.523 4.477 10 10 10h188.5c8.693 0 11-10.5 46-16 3.333-13 5.5-29 6.5-48z" fill="#5C9FFF"></path>
      <path d="M242.5 15.5h-164c-5.523 0-10 4.477-10 10v105c0 5.523 4.477 10 10 10h164c5.523 0 10-4.477 10-10v-105c0-5.523-4.477-10-10-10z" fill="#A6BCE2" stroke="#112950"></path>
      <path fill-rule="evenodd" clip-rule="evenodd" d="M163.45 40.755l3.25-5.63a1.499 1.499 0 0 1 2.49-.163 1.5 1.5 0 0 1 .109 1.663l-3.25 5.63-2.599-1.5zm-7.5 12.99l-3.25 5.63a1.5 1.5 0 1 0 2.599 1.5l3.25-5.63-2.599-1.5zM168.5 46.5h6.5a1.502 1.502 0 0 1 1.061 2.56 1.5 1.5 0 0 1-1.061.44h-6.5v-3zm-15 0H147a1.502 1.502 0 0 0-1.061 2.56 1.5 1.5 0 0 0 1.061.44h6.5" fill="#5C9FFF"></path>
      <path d="M153.5 46.5H147a1.502 1.502 0 0 0-1.061 2.56 1.5 1.5 0 0 0 1.061.44h6.5m9.95-8.745l3.25-5.63a1.499 1.499 0 0 1 2.49-.163 1.5 1.5 0 0 1 .109 1.663l-3.25 5.63-2.599-1.5zm-7.5 12.99l-3.25 5.63a1.5 1.5 0 1 0 2.599 1.5l3.25-5.63-2.599-1.5zM168.5 46.5h6.5a1.502 1.502 0 0 1 1.061 2.56 1.5 1.5 0 0 1-1.061.44h-6.5v-3z" stroke="#164798" stroke-linecap="round"></path>
      <path fill-rule="evenodd" clip-rule="evenodd" d="M166.049 53.745l3.25 5.63a1.504 1.504 0 0 1-.102 1.67 1.515 1.515 0 0 1-.999.576 1.5 1.5 0 0 1-1.497-.746l-3.25-5.63 2.598-1.5zm-7.5-12.99l-3.25-5.63a1.5 1.5 0 0 0-2.598 1.5l3.25 5.63" fill="#5C9FFF"></path>
      <path d="M158.549 40.755l-3.25-5.63a1.5 1.5 0 0 0-2.598 1.5l3.25 5.63m10.098 11.49l3.25 5.63a1.504 1.504 0 0 1-.102 1.67 1.515 1.515 0 0 1-.999.576 1.5 1.5 0 0 1-1.497-.746l-3.25-5.63 2.598-1.5z" stroke="#164798" stroke-linecap="round"></path>
      <path d="M161 60c6.627 0 12-5.373 12-12s-5.373-12-12-12-12 5.373-12 12 5.373 12 12 12z" fill="#5C9FFF" stroke="#164798" stroke-linecap="round"></path>
      <path fill-rule="evenodd" clip-rule="evenodd" d="M159.5 40.5V34a1.501 1.501 0 0 1 3 0v6.5h-3zm0 15V62a1.501 1.501 0 0 0 3 0v-6.5h-3zm7.245-12.55l5.63-3.25a1.503 1.503 0 0 1 2.05.55c.098.17.162.358.188.554a1.515 1.515 0 0 1-.298 1.11c-.12.155-.269.286-.44.385l-5.63 3.25-1.5-2.599zm-12.99 7.5l-5.63 3.25a1.499 1.499 0 0 0-.549 2.05 1.497 1.497 0 0 0 2.049.549l5.63-3.25" fill="#5C9FFF"></path>
      <path d="M153.755 50.45l-5.63 3.25a1.499 1.499 0 0 0-.549 2.05 1.497 1.497 0 0 0 2.049.549l5.63-3.25M159.5 40.5V34a1.501 1.501 0 0 1 3 0v6.5h-3zm0 15V62a1.501 1.501 0 0 0 3 0v-6.5h-3zm7.245-12.55l5.63-3.25a1.503 1.503 0 0 1 2.05.55c.098.17.162.358.188.554a1.515 1.515 0 0 1-.298 1.11c-.12.155-.269.286-.44.385l-5.63 3.25-1.5-2.599z" stroke="#164798" stroke-linecap="round"></path>
      <path fill-rule="evenodd" clip-rule="evenodd" d="M168.245 50.451l5.63 3.25a1.496 1.496 0 0 1 .746 1.497 1.489 1.489 0 0 1-.576.999 1.504 1.504 0 0 1-1.67.102l-5.63-3.25 1.5-2.598zm-12.99-7.5l-5.63-3.25a1.5 1.5 0 0 0-1.5 2.598l5.63 3.25" fill="#5C9FFF"></path>
      <path d="M155.255 42.951l-5.63-3.25a1.5 1.5 0 0 0-1.5 2.598l5.63 3.25m14.49 4.902l5.63 3.25a1.496 1.496 0 0 1 .746 1.497 1.489 1.489 0 0 1-.576.999 1.504 1.504 0 0 1-1.67.102l-5.63-3.25 1.5-2.598z" stroke="#164798" stroke-linecap="round"></path>
      <path fill-rule="evenodd" clip-rule="evenodd" d="M194 81.5h-67a4.491 4.491 0 0 0-4.159 2.778A4.485 4.485 0 0 0 122.5 86v13c0 1.243.504 2.368 1.318 3.182A4.49 4.49 0 0 0 127 103.5h67a4.49 4.49 0 0 0 4.159-2.777A4.49 4.49 0 0 0 198.5 99V86a4.485 4.485 0 0 0-1.318-3.182A4.48 4.48 0 0 0 194 81.5z" fill="#5C9FFF" stroke="#164798" stroke-linecap="round"></path>
      <path fill-rule="evenodd" clip-rule="evenodd" d="M143.5 86.5h-4v4h-4v4h4v4h4v-4h4v-4h-4v-4z" fill="#fff" stroke="#164798" stroke-linecap="round"></path>
      <path d="M135 127.5h31m-31-14h52-52zm19-18h33-33zm0-6h21-21zm-19 31h52-52z" stroke="#164798"></path>
      <path fill-rule="evenodd" clip-rule="evenodd" d="M85 174.5H10a9.47 9.47 0 0 0-6.718 2.782A9.465 9.465 0 0 0 .5 184v23.5h94V184a9.471 9.471 0 0 0-2.782-6.718A9.47 9.47 0 0 0 85 174.5zm113 0h-75a9.464 9.464 0 0 0-6.718 2.782A9.464 9.464 0 0 0 113.5 184v23.5h94V184a9.464 9.464 0 0 0-2.782-6.718A9.464 9.464 0 0 0 198 174.5zm112 0h-74a9.464 9.464 0 0 0-6.718 2.782A9.464 9.464 0 0 0 226.5 184v23.5h93V184a9.464 9.464 0 0 0-2.782-6.718A9.464 9.464 0 0 0 310 174.5z" fill="#324B72" stroke="#49638C"></path>
    </g>
    <defs>
      <clipPath id="clip0">
        <path fill="#fff" d="M0 0h320v208H0z"></path>
      </clipPath>
    </defs>
  </symbol>
  <symbol viewBox="0 0 24 48" fill="none" xmlns="http://www.w3.org/2000/svg" id="facebook">
    <path d="M7.5 36V25.51h3.75l.75-4.494H7.5v-2.997c0-.75.667-1.498 2.25-1.498H12v-4.495c-.389-.058-1.667 0-3.167 0C7.5 12.026 3 14.33 3 18.019v2.997H0v4.495h3V36h4.5z" fill="#92A0B6"></path>
  </symbol>
  <symbol viewBox="0 0 149 50" fill="none" xmlns="http://www.w3.org/2000/svg" id="global-excel">
    <path fill-rule="evenodd" clip-rule="evenodd" d="M0 40.912v-.047c0-4.475 3.426-8.267 8.245-8.267 2.787 0 4.5.775 6.144 2.169l-1.78 2.126c-1.235-1.052-2.444-1.715-4.478-1.715-2.946 0-5.184 2.58-5.184 5.642v.045c0 3.289 2.17 5.71 5.435 5.71 1.508 0 2.878-.477 3.86-1.21v-2.992H8.153V39.93h6.808v6.714c-1.577 1.347-3.838 2.49-6.67 2.49C3.288 49.133 0 45.57 0 40.911v.001zm17.082 7.948h2.765V32.186h-2.765V48.86zm14.436-5.961v-.045c0-2.126-1.53-3.884-3.7-3.884-2.216 0-3.633 1.735-3.633 3.837v.047c0 2.1 1.531 3.88 3.678 3.88 2.239 0 3.655-1.758 3.655-3.835zm-10.095 0v-.045c0-3.45 2.74-6.305 6.44-6.305s6.418 2.81 6.418 6.258v.047c0 3.426-2.74 6.28-6.463 6.28-3.678 0-6.395-2.81-6.395-6.235zm23.957-.046v-.046c0-2.33-1.576-3.86-3.448-3.86-1.873 0-3.518 1.553-3.518 3.86v.046c0 2.33 1.645 3.86 3.518 3.86 1.895 0 3.448-1.485 3.448-3.86zm-6.897 4.134v1.874H35.72V32.187h2.764v6.623c.89-1.257 2.147-2.261 4.089-2.261 2.855 0 5.618 2.26 5.618 6.258v.046c0 3.997-2.74 6.258-5.618 6.258-1.987 0-3.244-1.004-4.089-2.124h-.001zm18.613-3.175c-.708-.274-1.69-.48-2.763-.48-1.737 0-2.764.707-2.764 1.873v.045c0 1.142 1.027 1.783 2.329 1.783 1.829 0 3.198-1.028 3.198-2.536v-.685zm-.07 5.048v-1.485c-.82.984-2.077 1.737-3.904 1.737-2.284 0-4.294-1.302-4.294-3.723v-.047c0-2.672 2.078-3.951 4.887-3.951 1.462 0 2.399.205 3.336.501v-.227c0-1.666-1.052-2.58-2.97-2.58-1.348 0-2.353.296-3.45.753l-.753-2.217c1.326-.591 2.628-1.004 4.59-1.004 3.565 0 5.3 1.874 5.3 5.095v7.148h-2.742zm4.821 0h2.763V32.186h-2.763V48.86zm5.033-16.67h11.85v1.144H68.117v6.543h9.544v1.142h-9.544v6.687H78.85v1.142H66.88V32.19zm18.084 10.471l-4.784-5.95h1.452l4.093 5.142 4.092-5.142h1.405l-4.782 5.927 4.973 6.212H89.96l-4.284-5.404-4.284 5.404H79.99l4.974-6.189zm6.64.167v-.048c0-3.402 2.713-6.353 6.187-6.353 2.284 0 3.711 1.046 4.855 2.237l-.834.858c-1.047-1.071-2.237-2-4.045-2-2.76 0-4.902 2.308-4.902 5.211v.047c0 2.927 2.213 5.26 4.997 5.26 1.713 0 3.047-.881 4.07-2.023l.809.713c-1.239 1.405-2.713 2.403-4.95 2.403-3.498 0-6.187-2.903-6.187-6.305zm21.87-.619c-.166-2.45-1.57-4.712-4.355-4.712-2.403 0-4.26 2.025-4.474 4.712h8.83-.001zm-10.066.595v-.047c0-3.522 2.474-6.33 5.758-6.33 3.403 0 5.57 2.76 5.57 6.353 0 .214 0 .287-.025.475h-10.066c.215 3.025 2.38 4.784 4.76 4.784 1.88 0 3.164-.834 4.164-1.903l.81.713c-1.237 1.334-2.69 2.284-5.02 2.284-3.19 0-5.95-2.545-5.95-6.33l-.001.001zm13.468 6.046h1.164V31.476h-1.164V48.85zm23.701-16.632a31.55 31.55 0 0 1-3.082 1.615c.045 1.13.017 2.316-.092 3.551 1.062-.44 2.099-.94 3.105-1.498.103-1.22.126-2.445.069-3.668zm-4.802-2.759c-.277.13-.563.262-.85.391-.285.128-.574.25-.87.376-.294.121-.59.24-.891.358-.3.12-.602.233-.913.346.07.31.132.614.194.917.058.303.114.605.164.905.053.3.1.598.147.894.043.296.084.592.12.882.309-.102.617-.211.919-.318a48.011 48.011 0 0 0 1.78-.685c.29-.12.576-.237.858-.362a30.573 30.573 0 0 0-.658-3.704zm-5.898-2.905c-.588.219-1.18.424-1.777.616-.297.096-.594.185-.889.275-.298.088-.592.173-.889.254l.207.84.198.848a71.227 71.227 0 0 1 .413 1.884c.005.021.01.039.011.062.312-.083.621-.163.934-.249.941-.26 1.874-.55 2.797-.868-.003-.017-.008-.038-.01-.06-.005-.019-.011-.04-.014-.059a.383.383 0 0 1-.016-.058c-.005-.02-.008-.04-.015-.058a56.448 56.448 0 0 0-.95-3.427zm-3.635 6.132c-.62.143-1.242.271-1.868.384-.31.059-.621.113-.932.163-.311.053-.62.101-.929.146.049.299.095.594.14.884.052.292.097.582.14.87.05.285.094.569.135.85.045.282.088.56.13.838.313-.045.623-.092.937-.14a51.555 51.555 0 0 0 2.818-.515c-.038-.279-.08-.56-.126-.848a87.754 87.754 0 0 0-.283-1.741c-.054-.293-.105-.588-.162-.891zm5.617 3.241a49.71 49.71 0 0 1-1.894.533 49.531 49.531 0 0 1-1.887.462c.066.542.123 1.085.171 1.629.023.266.044.529.06.79.02.261.037.52.05.773a54.046 54.046 0 0 0 3.65-.893c.005-.262.001-.527-.002-.8a22.375 22.375 0 0 0-.027-.819c-.013-.27-.026-.548-.049-.83-.02-.28-.043-.56-.072-.845zm9.21-16.511c-.17.19-.344.38-.53.57a18.04 18.04 0 0 1-.556.554c-.192.181-.387.365-.592.54-.201.178-.406.352-.618.528.142.282.28.57.408.858.131.292.26.586.383.88a29.24 29.24 0 0 1 .719 1.938c.007.02.015.04.021.063a.32.32 0 0 0 .021.061c.224-.166.444-.337.661-.511.22-.173.43-.349.637-.526.207-.18.41-.358.608-.542.194-.182.385-.368.573-.556-.008-.023-.016-.042-.023-.065a.475.475 0 0 1-.02-.064c-.01-.02-.017-.042-.026-.063-.008-.023-.015-.047-.023-.066a22.39 22.39 0 0 0-.756-1.848c-.14-.3-.283-.594-.43-.888-.146-.29-.3-.579-.457-.863zm-3.07 2.802c-.221.164-.445.329-.674.493-.226.158-.463.318-.699.474-.48.318-.97.62-1.47.905.237.567.456 1.14.659 1.72.101.292.201.584.297.877.111.336.215.675.314 1.015l.016.063c.007.02.012.04.016.06a29.87 29.87 0 0 0 3.034-1.822l-.02-.063-.02-.063c-.005-.02-.015-.042-.021-.062-.006-.021-.011-.042-.02-.063a26.463 26.463 0 0 0-.314-.907A26.838 26.838 0 0 0 138 22.218h-.001zm7.654-.792c-.252.421-.526.83-.82 1.222-.154.197-.309.397-.473.59-.166.197-.336.39-.51.58.102.343.194.687.28 1.029.08.346.154.69.222 1.035.068.347.122.69.17 1.037.048.347.088.692.117 1.037.354-.34.689-.7 1.003-1.076.304-.357.587-.73.848-1.119a19.843 19.843 0 0 0-.837-4.336v.001zm-2.461 3.067c-.186.182-.382.364-.58.547-.41.363-.83.713-1.261 1.05-.222.169-.446.335-.674.503.09.329.173.658.247.984.074.33.142.66.205.985.117.647.209 1.299.276 1.953a22.31 22.31 0 0 0 1.339-.942c.216-.16.425-.325.629-.488.204-.17.401-.337.595-.507-.06-.687-.155-1.37-.284-2.047a20.67 20.67 0 0 0-.492-2.039v.001zm4.672-.413a7.12 7.12 0 0 1-.589 1.756c-.091.192-.191.38-.301.571.009.75-.027 1.502-.11 2.248a18.77 18.77 0 0 1-.376 2.247 5.89 5.89 0 0 0 .259-.445c.158-.29.29-.593.396-.906.05-.157.097-.308.131-.466l.208-.96c.129-.672.226-1.349.292-2.029.032-.339.056-.674.07-1.013.017-.334.022-.668.02-1.003zm-1.313 2.997c-.127.185-.26.366-.4.548-.44.563-.924 1.09-1.447 1.577.008.347.007.692-.003 1.038-.011.345-.032.69-.061 1.032-.031.343-.071.686-.12 1.027-.049.342-.108.683-.177 1.021.33-.286.648-.587.952-.901.285-.296.551-.61.797-.938.08-.364.15-.729.212-1.095.175-1.094.258-2.202.247-3.31v.001zm-2.514 2.726c-.19.167-.389.328-.594.486-.2.163-.41.32-.622.479-.436.318-.882.622-1.337.911.026.64.022 1.28-.011 1.918-.023.32-.05.635-.08.945-.035.315-.076.628-.124.936.223-.13.44-.26.652-.396.213-.13.422-.264.624-.401a17.56 17.56 0 0 0 1.163-.84c.066-.33.12-.662.166-.999a18.83 18.83 0 0 0 .163-3.039zM97.98 9.47a20.909 20.909 0 0 1 2.423-2.188c.306-.24.627-.479.961-.714-.061.285-.114.58-.16.883-.05.307-.09.623-.12.949a21.355 21.355 0 0 0-.115 2.085v.305c-.675.45-1.33.932-1.961 1.442-.566.46-1.108.95-1.625 1.465.002-.028.002-.05.005-.076v-.076l.005-.073c0-.027 0-.051.003-.075.016-.363.04-.718.073-1.063.034-.347.074-.683.126-1.01a16.5 16.5 0 0 1 .385-1.855v.001zm-3.388 9.397c.245-.493.524-.967.836-1.42.347-.504.724-.986 1.129-1.444a24.1 24.1 0 0 0 .19 2.474c.055.422.116.845.19 1.274.076.429.16.861.257 1.295-.218.223-.423.445-.616.668a12.039 12.039 0 0 0-1.394 1.97c-.09-.409-.174-.817-.245-1.225a23.51 23.51 0 0 1-.298-2.411 22.378 22.378 0 0 1-.049-1.181zm7.774-7.442c.394-.228.797-.452 1.206-.666.415-.22.838-.433 1.267-.637.435-.21.874-.41 1.317-.602.45-.195.908-.382 1.371-.568.04.434.087.873.142 1.318.112.931.246 1.86.4 2.785.076.481.161.965.253 1.459-.466.169-.93.346-1.388.527a41.19 41.19 0 0 0-2.616 1.148c-.417.204-.825.41-1.221.621a43.294 43.294 0 0 1-.626-4.1 39.436 39.436 0 0 1-.105-1.285zM98.427 21.85c.533-.46 1.089-.89 1.666-1.292.31-.217.628-.43.962-.643.337-.21.685-.425 1.048-.632.12.476.242.958.38 1.437.135.486.28.971.433 1.46.306.991.644 1.973 1.013 2.942-.66.338-1.307.701-1.939 1.089-.295.182-.577.366-.851.548-.268.186-.524.37-.771.555-.2-.458-.392-.915-.576-1.374a46.99 46.99 0 0 1-.515-1.371 36.605 36.605 0 0 1-.85-2.72v.001zm13.594-15.947a48.499 48.499 0 0 1 3.05-.74c-.003-.027-.006-.054-.011-.081a2.063 2.063 0 0 1-.01-.078c-.005-.024-.008-.051-.011-.076-.005-.025-.007-.05-.012-.077-.051-.376-.1-.734-.146-1.084-.049-.347-.09-.68-.131-1.002-.04-.304-.078-.61-.115-.914l-.096-.832a44.033 44.033 0 0 0-4.221 1.148c-.455.15-.905.31-1.352.476-.008.27-.013.556-.018.85 0 .298.005.608.012.929.021.698.057 1.396.108 2.092l.006.076c.002.025.005.051.005.077l.006.078.007.075a46.032 46.032 0 0 1 2.929-.918v.001zm4.539-3.487c.053.32.104.653.159.998.055.347.111.708.173 1.084.003.026.01.052.013.077.001.025.006.05.01.076.006.026.009.05.012.078.007.027.01.053.015.079a51.83 51.83 0 0 1 6.282-.666c-.007-.025-.011-.054-.016-.078l-.018-.077c-.006-.026-.013-.05-.018-.078-.008-.025-.01-.051-.017-.077-.086-.37-.171-.732-.255-1.08-.087-.344-.175-.672-.258-.991a34.515 34.515 0 0 0-.512-1.726 44.267 44.267 0 0 0-5.851.636c.043.266.085.54.135.832l.145.913h.001zm7.886-.693c.206.685.395 1.375.565 2.069.006.024.011.052.018.076l.02.077c.006.026.014.053.018.078.007.026.013.052.018.079a43.68 43.68 0 0 1 5.949.377.705.705 0 0 1-.025-.077c-.01-.025-.014-.052-.024-.076-.008-.024-.014-.052-.022-.076-.007-.026-.018-.052-.025-.077a23.78 23.78 0 0 0-.356-1.071c-.12-.342-.245-.67-.37-.986a24.335 24.335 0 0 0-.387-.901c-.129-.276-.263-.55-.403-.821a43.518 43.518 0 0 0-1.343-.171c-.457-.049-.915-.09-1.38-.125A41.643 41.643 0 0 0 123.865 0c.211.568.405 1.143.582 1.723h-.001zm8.012 9.893a45.563 45.563 0 0 0-1.031-5.618 47.55 47.55 0 0 0-6.005-.345c.404 1.88.729 3.775.973 5.682a43.846 43.846 0 0 1 6.063.281zm-.625-9.23c.284.673.541 1.358.769 2.053.01.026.016.052.024.076l.026.074a.269.269 0 0 0 .024.078c.009.025.017.05.023.077.883.162 1.759.359 2.627.59a28.25 28.25 0 0 1 2.402.762l-.026-.073a2.186 2.186 0 0 0-.029-.076c-.008-.029-.02-.051-.029-.075a21.405 21.405 0 0 0-.916-2.12 17.477 17.477 0 0 0-1.003-1.729c-.743-.293-1.5-.55-2.268-.766-.395-.114-.8-.22-1.211-.318a27.675 27.675 0 0 0-1.26-.275c.316.557.599 1.132.847 1.722zm6.184 1.908c.345.661.651 1.342.917 2.039.008.026.02.05.03.076.01.024.02.046.028.074.01.026.02.052.03.074.008.028.019.05.028.076.354.156.694.318 1.025.489.637.322 1.253.684 1.845 1.082.282.189.553.389.81.589l-.03-.075a.506.506 0 0 0-.03-.074c-.008-.022-.018-.05-.03-.074l-.028-.074a18.484 18.484 0 0 0-.984-2.021 15.385 15.385 0 0 0-.545-.908 17.07 17.07 0 0 0-.583-.844c-.25-.203-.51-.397-.783-.59a17.34 17.34 0 0 0-1.761-1.085 21.443 21.443 0 0 0-.978-.49c.184.267.36.543.534.83.172.293.342.595.505.906zm4.475 2.933c.181.315.354.642.518.976.165.337.324.684.474 1.04.012.025.02.049.031.075.01.022.021.048.03.074a.458.458 0 0 1 .03.07c.013.025.022.053.03.075.261.244.511.5.75.766.113.13.228.263.333.399.181.222.351.453.508.692.064.095.127.191.185.288.06.095.116.194.171.289.055.097.105.197.157.292a.974.974 0 0 1-.031-.073.472.472 0 0 1-.03-.072c-.009-.024-.022-.049-.031-.071a.488.488 0 0 0-.031-.073c-.04-.093-.082-.185-.123-.277-.038-.09-.08-.18-.124-.271-.04-.09-.085-.18-.127-.27-.044-.088-.086-.175-.132-.264-.588-1.074-1.446-2.463-2.11-3.49l-.436-.594a6.154 6.154 0 0 0-.27-.343 8.671 8.671 0 0 0-.288-.336 8.4 8.4 0 0 0-.306-.332 8.44 8.44 0 0 0-.321-.324h-.002c.202.27.4.553.589.846.194.292.379.597.556.908zm-21.199 4.405a59.792 59.792 0 0 1 3.206-.232 97.88 97.88 0 0 0-.223-1.525c-.074-.496-.15-.985-.23-1.467-.082-.478-.161-.947-.247-1.407a61.17 61.17 0 0 0-.256-1.342 50.94 50.94 0 0 0-3.179.236c-.532.054-1.064.117-1.594.19-.529.073-1.06.152-1.589.24l.212 1.342c.072.458.148.926.222 1.402.074.48.15.968.23 1.46l.235 1.516a57.895 57.895 0 0 1 3.213-.413zm15.514.775c.423.102.839.206 1.244.32.406.112.798.233 1.184.359a32.43 32.43 0 0 0-.403-2.861 27.343 27.343 0 0 0-.628-2.649c-.382-.14-.776-.274-1.179-.398a30.356 30.356 0 0 0-2.544-.668c-.448-.1-.899-.189-1.351-.268.228.895.425 1.799.589 2.708.176.975.318 1.955.425 2.94.46.07.915.15 1.36.235.442.088.876.18 1.303.282zm4.791 1.594c.334.152.655.308.963.47.308.16.604.329.889.501.279.17.55.35.808.53a22.807 22.807 0 0 0-.153-1.38 22.45 22.45 0 0 0-.218-1.34c-.087-.44-.184-.874-.289-1.3-.108-.42-.226-.838-.354-1.252-.26-.2-.533-.392-.82-.58a17.506 17.506 0 0 0-1.853-1.066c-.34-.17-.684-.331-1.034-.481a27.76 27.76 0 0 1 .861 4.023c.067.474.123.953.17 1.44.356.138.698.284 1.03.435zm3.384.81c.063.452.113.904.146 1.362a9.741 9.741 0 0 1 1.378 1.411c.13.17.256.344.376.521l.164.26c.053.09.102.175.15.264a22.369 22.369 0 0 0-.343-2.552 24.654 24.654 0 0 0-.283-1.23c-.104-.402-.221-.8-.351-1.195a4.593 4.593 0 0 0-.158-.29c-.05-.096-.107-.188-.165-.283-.061-.095-.122-.19-.185-.284-.065-.098-.133-.19-.199-.285-.1-.133-.201-.268-.308-.4a17.167 17.167 0 0 0-.334-.39c-.24-.262-.491-.513-.753-.753.132.406.25.818.357 1.24.11.42.204.848.29 1.283.082.434.156.878.218 1.321zm-27.959 2.671c-.093-.549-.188-1.092-.279-1.634-.09-.537-.182-1.071-.267-1.6-.525.1-1.046.205-1.563.316-.516.114-1.028.232-1.537.356-.508.126-1.012.258-1.51.395a56.26 56.26 0 0 0-1.474.433c.103.516.21 1.032.32 1.555.114.524.231 1.051.352 1.583.121.533.247 1.065.38 1.602.128.537.265 1.076.404 1.616.936-.264 1.879-.5 2.829-.71a57.17 57.17 0 0 1 2.928-.582c-.1-.558-.197-1.117-.294-1.674l-.289-1.656zm8.085-.912c-.055-.552-.113-1.104-.175-1.656-.059-.542-.121-1.083-.187-1.624a59.632 59.632 0 0 0-6.37.634l.248 1.61c.085.543.17 1.091.26 1.641.082.554.169 1.11.254 1.668.087.56.174 1.121.263 1.684a64.824 64.824 0 0 1 6.005-.566 136.037 136.037 0 0 0-.298-3.39v-.001zm7.637-1.446a56.866 56.866 0 0 0-.11-1.598 45.506 45.506 0 0 0-2.937-.232 50.662 50.662 0 0 0-3.068-.054 110.038 110.038 0 0 1 .446 4.963c.038.567.072 1.134.104 1.704.963-.02 1.926-.01 2.888.027.47.016.938.039 1.4.066.46.03.916.065 1.367.103a73.054 73.054 0 0 0-.019-3.343 68.687 68.687 0 0 0-.071-1.636zm5.447-.581a33.835 33.835 0 0 0-3.876-.8c.039.524.068 1.053.092 1.59.026.537.042 1.08.05 1.623a63.44 63.44 0 0 1-.042 3.322c1.229.154 2.449.369 3.656.644.381.087.749.18 1.11.279.053-.539.1-1.076.136-1.611a46.38 46.38 0 0 0 .093-3.164 39.598 39.598 0 0 0-.045-1.541c-.38-.121-.773-.234-1.174-.342z" fill="#7B8BA5"></path>
    <path fill-rule="evenodd" clip-rule="evenodd" d="M143.546 16.693a16.69 16.69 0 0 0-.88-.482 19.48 19.48 0 0 0-.955-.449c-.33-.147-.673-.285-1.024-.417a36.547 36.547 0 0 1 0 3.07 41.245 41.245 0 0 1-.256 3.16c.333.11.657.226.97.345.313.12.615.244.907.373.288.127.567.26.835.397.265.135.521.277.765.422.084-.498.156-.999.216-1.501.124-.983.198-1.972.222-2.963.013-.484.015-.968.002-1.449a14.933 14.933 0 0 0-.802-.506zm3.688 4.85c.023-.449.033-.892.026-1.337a5.844 5.844 0 0 0-.145-.25c-.055-.087-.11-.17-.165-.254a6.928 6.928 0 0 0-.18-.251c-.063-.084-.128-.165-.194-.25a8.58 8.58 0 0 0-.982-1.028c-.124-.112-.25-.222-.379-.329.015.958-.017 1.915-.094 2.87a30.49 30.49 0 0 1-.39 2.934c.126.092.249.183.365.277.119.09.23.185.34.279.28.245.543.51.787.79.06.071.116.142.173.212.107.138.208.28.303.426.097-.459.182-.917.256-1.373.14-.9.234-1.806.28-2.716h-.001zm.766.932a5.149 5.149 0 0 0-.205-1.021 5.801 5.801 0 0 0-.177-.515c.001.436-.008.876-.033 1.313-.019.44-.055.882-.103 1.326-.047.443-.11.887-.18 1.334-.073.445-.162.892-.259 1.338a4.327 4.327 0 0 1 .407 1.557c.013.173.013.343 0 .514.068-.293.13-.588.187-.882.056-.295.106-.589.148-.885.088-.584.15-1.172.187-1.762l.012-.19.042-1.62c0-.169-.012-.34-.026-.507z" fill="#7B8BA5"></path>
  </symbol>
  <symbol viewBox="0 0 48 48" fill="none" xmlns="http://www.w3.org/2000/svg" id="linkedin">
    <path d="M36 26.101V35h-5.144v-8.303c0-2.086-.744-3.509-2.606-3.509-1.421 0-2.267.96-2.64 1.888-.135.331-.17.793-.17 1.257V35h-5.146s.07-14.062 0-15.52h5.145v2.2c-.01.017-.024.035-.033.05h.033v-.05c.684-1.055 1.905-2.564 4.638-2.564 3.385 0 5.923 2.219 5.923 6.985zM14.912 12C13.152 12 12 13.158 12 14.68c0 1.49 1.118 2.684 2.843 2.684h.035c1.794 0 2.91-1.193 2.91-2.683C17.754 13.158 16.672 12 14.912 12zm-2.606 23h5.143V19.48h-5.143V35z" fill="#92A0B6"></path>
  </symbol>
  <symbol viewBox="0 0 96 96" fill="none" xmlns="http://www.w3.org/2000/svg" id="local-info">
    <path fill-rule="evenodd" clip-rule="evenodd" d="M7.275 20.095c15.986-24 62.361-28.382 78.82 4.16 16.459 32.542-27.067 69.347-55.202 59.21C2.758 73.325-8.712 44.094 7.275 20.094v.001z" fill="#EAEEF2"></path>
    <path fill-rule="evenodd" clip-rule="evenodd" d="M78 42.5H47a17.445 17.445 0 0 0-12.374 5.126A17.445 17.445 0 0 0 29.5 60c0 4.832 1.959 9.207 5.126 12.374A17.445 17.445 0 0 0 47 77.5h31c4.832 0 9.207-1.959 12.374-5.126A17.445 17.445 0 0 0 95.5 60c0-4.832-1.959-9.207-5.126-12.374A17.445 17.445 0 0 0 78 42.5z" fill="#fff" stroke="#BBC4D3"></path>
    <path fill-rule="evenodd" clip-rule="evenodd" d="M51.5 51.5h-5v6h-6v5h6v6h5v-6h6v-5h-6v-6zM24.725 31.687c-.823-.797-1.753-1.187-2.786-1.187-.984 0-2.074.365-3.305 1.155C10.56 38.093 6.5 47.654 6.5 60.362c0 19.044 10.634 28.736 12.124 29.992.928.782 1.807 1.261 2.894 1.122.86-.11 1.881-.627 3.214-1.848 1.404-1.419 2.63-2.425 3.602-3.223.919-.755 1.618-1.338 2.048-1.894.827-1.068 1.118-2.002 1.118-2.828 0-1.084-.512-2.003-1.108-2.825a116.142 116.142 0 0 0-2.629-3.45c-.783-1-1.46-1.864-1.91-2.524-1.206-1.774-2.417-2.474-4.102-2.707-.585-.08-1.24-.167-1.906-.255-1.327-.176-2.703-.358-3.672-.513-1.63-5.453-1.638-11.56 0-16.796 1.206-.232 3.548-.51 5.566-.739 2.154-.244 2.524-.703 3.384-1.736.104-.126.217-.26.343-.407.75-.87 2.035-2.711 3.326-4.564.546-.784 1.094-1.57 1.602-2.284.635-.89.942-1.78.942-2.66 0-.883-.308-1.766-.982-2.688-2.308-2.5-4.185-4.448-5.63-5.848h.001z" fill="#5C9FFF" stroke="#164798" stroke-linecap="round"></path>
    <path d="M64 65.5h12m-12-10h19-19zm0 5h19-19z" stroke="#BBC4D3"></path>
  </symbol>
  <symbol viewBox="0 0 157 32" fill="none" xmlns="http://www.w3.org/2000/svg" id="logo">
    <path fill-rule="evenodd" clip-rule="evenodd" d="M48.07 8.455V23h-2.635V8.455h2.635zm5.1 8.153V23h-2.572V12.09h2.458v1.855h.127c.498-1.215 1.62-1.996 3.253-1.996 2.252 0 3.743 1.491 3.736 4.105V23h-2.571v-6.548c0-1.456-.795-2.33-2.124-2.33-1.356 0-2.308.91-2.308 2.486h.001zm15-4.517v1.989h-2.266V23h-2.571v-8.92H61.72v-1.99h1.612v-1.029c0-2.202 1.513-3.288 3.409-3.288.888 0 1.62.184 1.953.298l-.519 1.989c-.31-.1-.633-.152-.958-.157-.96 0-1.314.476-1.314 1.329v.859h2.267zm6.242 11.122c-3.295 0-5.305-2.18-5.305-5.604 0-3.366 2.038-5.66 5.163-5.66 2.685 0 4.986 1.683 4.986 5.511v.789h-7.6c.022 1.867 1.123 2.961 2.785 2.961 1.115 0 1.96-.483 2.308-1.406l2.408.27c-.455 1.896-2.21 3.14-4.745 3.14v-.001zm-2.748-6.697h5.128c-.007-1.485-1.002-2.564-2.486-2.564-1.534 0-2.557 1.172-2.642 2.564zM81.23 23V12.09h2.493v1.82h.113c.398-1.265 1.435-1.975 2.692-1.975.59 0 1.08.156 1.463.397l-.795 2.131a2.334 2.334 0 0 0-1.016-.227c-1.342 0-2.38.973-2.38 2.35V23h-2.57zm8.054 0V12.09h2.457v1.855h.128c.455-1.243 1.548-1.996 3.012-1.996 1.47 0 2.528.76 2.947 1.996h.114c.483-1.215 1.69-1.996 3.274-1.996 2.003 0 3.409 1.292 3.409 3.729V23h-2.578v-6.925c0-1.35-.824-1.96-1.861-1.96-1.243 0-1.975.852-1.975 2.081V23h-2.52v-7.031c0-1.122-.747-1.854-1.833-1.854-1.108 0-2.003.91-2.003 2.251V23h-2.571zm22.592.213c-3.295 0-5.305-2.18-5.305-5.604 0-3.366 2.038-5.66 5.163-5.66 2.685 0 4.986 1.683 4.986 5.511v.789h-7.6c.022 1.867 1.123 2.961 2.785 2.961 1.115 0 1.96-.483 2.308-1.406l2.408.27c-.455 1.896-2.21 3.14-4.745 3.14v-.001zm-2.748-6.697h5.128c-.007-1.485-1.002-2.564-2.486-2.564-1.534 0-2.557 1.172-2.642 2.564zM128.547 23h-2.529v-1.719h-.149c-.405.796-1.25 1.91-3.125 1.91-2.57 0-4.496-2.038-4.496-5.631 0-3.637 1.982-5.611 4.503-5.611 1.925 0 2.727 1.158 3.118 1.946h.107v-5.44h2.57V23h.001zm-2.522-5.455c0-2.116-.909-3.487-2.564-3.487-1.711 0-2.592 1.456-2.592 3.487 0 2.046.895 3.537 2.592 3.537 1.641 0 2.564-1.42 2.564-3.537zM130.97 23V12.09h2.57V23h-2.57zm1.292-12.372c-.802 0-1.491-.61-1.491-1.392 0-.789.689-1.4 1.491-1.4.796 0 1.485.611 1.485 1.4 0 .781-.69 1.392-1.485 1.392zm8.48 12.585c-3.26 0-5.227-2.322-5.227-5.625 0-3.33 2.017-5.64 5.213-5.64 2.664 0 4.51 1.556 4.695 3.921h-2.465c-.191-1.05-.958-1.846-2.194-1.846-1.584 0-2.642 1.32-2.642 3.522 0 2.23 1.037 3.573 2.642 3.573 1.13 0 1.974-.675 2.194-1.847h2.465c-.192 2.316-1.939 3.942-4.68 3.942h-.001zm9.717.007c-2.081 0-3.65-1.136-3.65-3.281 0-2.457 2.023-3.09 4.14-3.317l.191-.021c1.783-.192 2.515-.27 2.508-.987-.008-1.08-.64-1.698-1.847-1.698-1.257 0-1.982.64-2.237 1.385l-2.4-.34c.567-1.99 2.315-3.012 4.658-3.012 2.032 0 4.397.866 4.397 3.75V23h-2.472v-1.499h-.085c-.469.917-1.492 1.72-3.203 1.72v-.001zm.667-1.889c1.549 0 2.529-1.03 2.529-2.244V17.8c-.334.27-1.684.44-2.358.533-1.15.163-2.01.575-2.01 1.562 0 .945.767 1.435 1.84 1.435l-.001.001z" fill="#112950"></path>
    <path d="M29 0H3a3 3 0 0 0-3 3v26a3 3 0 0 0 3 3h26a3 3 0 0 0 3-3V3a3 3 0 0 0-3-3z" fill="#2E85FF"></path>
    <path fill-rule="evenodd" clip-rule="evenodd" d="M14 14V9h4v5h5v4h-5v5h-4v-5H9v-4h5z" fill="#fff"></path>
  </symbol>
  <symbol viewBox="0 0 120 52" fill="none" xmlns="http://www.w3.org/2000/svg" id="pzu">
    <path fill-rule="evenodd" clip-rule="evenodd" d="M20.591 15.621h9.818l-5.756 17.696-.018.05h5.397l.697 3.133H20.104l5.964-17.884.018-.051h-4.923l-.572-2.944zm-3.574 5.296c2.073 0 3.815 1.75 3.815 3.833 0 2.08-1.742 3.882-3.815 3.882l-1.824-.002h-.038v2.433h-2.837v-7.748l-.36-2.398h5.059zm-.253 5.464c.795 0 1.497-.761 1.497-1.564 0-.798-.702-1.5-1.497-1.5l-1.571.003h-.038v3.064h.038l1.571-.003zm20.05.558l-.006-5.795 2.867-.467v6.126a4.516 4.516 0 0 1-4.511 4.538 4.514 4.514 0 0 1-4.511-4.538v-5.66l2.865-.466-.004 6.262c0 .947.77 1.66 1.65 1.66.879 0 1.65-.713 1.65-1.66zM25.876 0c14.263.003 25.868 11.657 25.87 25.977-.002 14.32-11.607 25.97-25.87 25.97C11.608 51.948 0 40.298 0 25.978 0 11.657 11.608.003 25.876 0zm0 44.238c10.01-.016 18.171-8.209 18.193-18.263-.022-10.053-8.183-18.247-18.193-18.265C15.86 7.728 7.697 15.922 7.68 25.975c.017 10.054 8.18 18.248 18.196 18.263zm34.556-13.124v-1.337l4.708-7.498h-4.508v-1.393h6.327v1.264l-4.738 7.57h4.738v1.394h-6.527zm13.692-8.145c-.429-.503-1.015-.705-1.745-.705h-1.862v7.47h1.862c.73 0 1.316-.2 1.745-.703.502-.56.545-1.508.545-3.031 0-1.523-.043-2.472-.545-3.031zm1.317 6.85c-.716.892-1.617 1.295-2.891 1.295h-3.578V20.886h3.578c1.274 0 2.175.402 2.891 1.292.744.92.773 2.184.773 3.822 0 1.636-.029 2.9-.773 3.82v-.001zm6.893-7.54h-2.29v3.204h2.29c1.031 0 1.732-.59 1.732-1.595 0-1.006-.7-1.609-1.732-1.609zm1.79 8.834l-2.147-4.31h-1.933v4.31h-1.546V20.886h3.95c1.933 0 3.164 1.25 3.164 2.988 0 1.465-.888 2.398-2.032 2.714l2.347 4.525h-1.804.001zm8.41-8.302a2.042 2.042 0 0 0-1.518-.633c-.615 0-1.13.23-1.517.633-.5.545-.6 1.163-.6 3.188 0 2.026.1 2.63.6 3.175a2.061 2.061 0 0 0 1.517.646c.617 0 1.132-.244 1.518-.646.515-.531.6-1.149.6-3.175 0-2.025-.085-2.657-.6-3.188zm1.117 7.353c-.66.66-1.518 1.036-2.635 1.036-1.116 0-1.975-.375-2.633-1.036-1.002-1.006-1.03-2.025-1.03-4.165s.028-3.16 1.03-4.165c.658-.66 1.517-1.034 2.633-1.034 1.117 0 1.976.373 2.635 1.034 1 1.006 1.03 2.025 1.03 4.165s-.03 3.16-1.03 4.165zm11.487.95h-1.345l-2.076-7.168-2.06 7.168H98.31l-2.662-10.228h1.632l1.775 7.311 2.046-7.311h1.246l2.046 7.311 1.775-7.311h1.63l-2.66 10.228zm4.144 0V20.886h1.546v10.228h-1.546zm4.205 0V20.886H120v1.393h-4.967v2.988h4.236v1.379h-4.236v3.074H120v1.394h-6.513z" fill="#7B8BA5"></path>
  </symbol>
  <symbol viewBox="0 0 96 96" fill="none" xmlns="http://www.w3.org/2000/svg" id="recommendation">
    <path fill-rule="evenodd" clip-rule="evenodd" d="M79.58 20.686C62.595-1.184 20.13-4.382 3.67 28.16c-16.458 32.542 27.067 69.346 55.202 59.208C87.007 77.23 96.565 42.556 79.58 20.686z" fill="#EAEEF2"></path>
    <path fill-rule="evenodd" clip-rule="evenodd" d="M25 31.5h-4c-.414 0-.79.168-1.06.44A1.49 1.49 0 0 0 19.5 33v62.5h7V33c0-.414-.168-.79-.44-1.06A1.496 1.496 0 0 0 25 31.5z" fill="#D6DBE4" stroke="#BBC4D3"></path>
    <path fill-rule="evenodd" clip-rule="evenodd" d="M22 90h2a2 2 0 0 1 2 2v4h-6v-4a2 2 0 0 1 2-2z" fill="#D6DBE4"></path>
    <path fill-rule="evenodd" clip-rule="evenodd" d="M78.394 44.5H13a2.496 2.496 0 0 0-2.5 2.5v30a2.496 2.496 0 0 0 2.5 2.5h65.394a2.5 2.5 0 0 0 2.08-1.113l10-15a2.497 2.497 0 0 0 0-2.774l-10-15a2.5 2.5 0 0 0-2.08-1.113z" fill="#fff" stroke="#BBC4D3"></path>
    <path d="M23 37.5a6.5 6.5 0 1 0 0-13 6.5 6.5 0 0 0 0 13z" fill="#5C9FFF" stroke="#164798" stroke-linecap="round"></path>
    <path fill-rule="evenodd" clip-rule="evenodd" d="M64.5 53.5h-5v6h-6v5h6v6h5v-6h6v-5h-6v-6z" fill="#5C9FFF" stroke="#164798" stroke-linecap="round"></path>
    <path d="M19 69.5h10m-10-15h24-24zm0 5h24-24zm0 5h24-24z" stroke="#BBC4D3"></path>
  </symbol>
  <symbol viewBox="0 0 320 208" fill="none" xmlns="http://www.w3.org/2000/svg" id="share">
    <path fill-rule="evenodd" clip-rule="evenodd" d="M98 20.5H14a13.458 13.458 0 0 0-9.546 3.954A13.458 13.458 0 0 0 .5 34v173.5h111V34c0-3.728-1.511-7.103-3.954-9.546A13.458 13.458 0 0 0 98 20.5z" fill="#F5F8FB" stroke="#D6DBE4"></path>
    <path fill-rule="evenodd" clip-rule="evenodd" d="M96 60.5H16a3.493 3.493 0 0 0-3.235 2.16A3.49 3.49 0 0 0 12.5 64v56a3.5 3.5 0 0 0 2.16 3.235 3.5 3.5 0 0 0 1.34.265h80c.966 0 1.841-.392 2.475-1.025A3.489 3.489 0 0 0 99.5 120V64a3.493 3.493 0 0 0-2.16-3.234A3.49 3.49 0 0 0 96 60.5zm0 72H16c-.966 0-1.841.392-2.475 1.025A3.489 3.489 0 0 0 12.5 136v56a3.493 3.493 0 0 0 2.16 3.234c.425.176.88.267 1.34.266h80c.966 0 1.841-.392 2.475-1.025A3.489 3.489 0 0 0 99.5 192v-56a3.493 3.493 0 0 0-2.16-3.234A3.481 3.481 0 0 0 96 132.5z" fill="#fff" stroke="#E0E6ED"></path>
    <path d="M160.5 10.5l50 50M260 60l-49.5 50L260 60zm-49.5-49.5V110 10.5zM260 60l50-50-50 50zm-99.5.5l50 50-50-50z" stroke="#D6DBE4"></path>
    <path d="M210 69.5a9.5 9.5 0 0 0 9.5-9.5 9.5 9.5 0 0 0-9.5-9.5 9.5 9.5 0 0 0-9.5 9.5 9.5 9.5 0 0 0 9.5 9.5zm-50 50a9.5 9.5 0 0 0 9.5-9.5 9.5 9.5 0 0 0-9.5-9.5 9.5 9.5 0 0 0-9.5 9.5 9.5 9.5 0 0 0 9.5 9.5zm0-50a9.5 9.5 0 0 0 9.5-9.5 9.5 9.5 0 0 0-9.5-9.5 9.5 9.5 0 0 0-9.5 9.5 9.5 9.5 0 0 0 9.5 9.5z" fill="#EAEEF2" stroke="#D6DBE4"></path>
    <path d="M160 160l50-50" stroke="#D6DBE4"></path>
    <path d="M310 19.5a9.5 9.5 0 0 0 9.5-9.5A9.5 9.5 0 0 0 310 .5a9.5 9.5 0 0 0-9.5 9.5 9.5 9.5 0 0 0 9.5 9.5z" fill="#EAEEF2" stroke="#D6DBE4"></path>
    <path d="M260.5 60V10" stroke="#D6DBE4"></path>
    <path d="M260 19.5a9.5 9.5 0 0 0 9.5-9.5A9.5 9.5 0 0 0 260 .5a9.5 9.5 0 0 0-9.5 9.5 9.5 9.5 0 0 0 9.5 9.5zm0 50a9.5 9.5 0 0 0 9.5-9.5 9.5 9.5 0 0 0-9.5-9.5 9.5 9.5 0 0 0-9.5 9.5 9.5 9.5 0 0 0 9.5 9.5zm-50 50a9.5 9.5 0 0 0 9.5-9.5 9.5 9.5 0 0 0-9.5-9.5 9.5 9.5 0 0 0-9.5 9.5 9.5 9.5 0 0 0 9.5 9.5zm0-100a9.5 9.5 0 0 0 9.5-9.5A9.5 9.5 0 0 0 210 .5a9.5 9.5 0 0 0-9.5 9.5 9.5 9.5 0 0 0 9.5 9.5zm-50 0a9.5 9.5 0 0 0 9.5-9.5A9.5 9.5 0 0 0 160 .5a9.5 9.5 0 0 0-9.5 9.5 9.5 9.5 0 0 0 9.5 9.5z" fill="#EAEEF2" stroke="#D6DBE4"></path>
    <path fill-rule="evenodd" clip-rule="evenodd" d="M56 79.5a3.493 3.493 0 0 0-3.234 2.16A3.49 3.49 0 0 0 52.5 83v5.5H47a3.493 3.493 0 0 0-3.234 2.16A3.49 3.49 0 0 0 43.5 92a3.493 3.493 0 0 0 2.16 3.234c.425.176.88.267 1.34.266h5.5v5.5a3.5 3.5 0 0 0 2.16 3.235 3.5 3.5 0 0 0 1.34.265c.966 0 1.841-.392 2.475-1.025A3.489 3.489 0 0 0 59.5 101v-5.5H65a3.493 3.493 0 0 0 3.234-2.16A3.49 3.49 0 0 0 68.5 92a3.493 3.493 0 0 0-2.16-3.234A3.49 3.49 0 0 0 65 88.5h-5.5V83a3.493 3.493 0 0 0-2.16-3.234A3.49 3.49 0 0 0 56 79.5z" fill="#5C9FFF" stroke="#164798" stroke-linecap="round"></path>
    <path d="M90 44.5h14m-14-8h14-14zm0 4h14-14zm0 4h14-14zm0-8h14-14zm0 4h14-14z" stroke="#D6DBE4"></path>
    <path fill-rule="evenodd" clip-rule="evenodd" d="M58.364 156.906l3.157-5.468a1.498 1.498 0 0 1 2.054-.558 1.503 1.503 0 0 1 .544 2.058l-3.157 5.468-2.598-1.5zm-7.326 12.688l-3.157 5.468a1.5 1.5 0 1 0 2.598 1.5l3.157-5.468-2.598-1.5zM63.5 162.5h6a1.501 1.501 0 0 1 0 3h-6v-3zm-15 0h-6a1.501 1.501 0 0 0 0 3h6v-3zm12.461 7.095l3.157 5.468a1.5 1.5 0 1 1-2.598 1.5l-3.157-5.468 2.598-1.5zm-7.325-12.689l-3.156-5.468a1.498 1.498 0 0 0-2.054-.558 1.503 1.503 0 0 0-.544 2.058l3.157 5.468" fill="#5C9FFF"></path>
    <path d="M53.636 156.906l-3.156-5.468a1.498 1.498 0 0 0-2.054-.558 1.503 1.503 0 0 0-.544 2.058l3.157 5.468m7.325-1.5l3.157-5.468a1.498 1.498 0 0 1 2.054-.558 1.503 1.503 0 0 1 .544 2.058l-3.157 5.468-2.598-1.5zm-7.326 12.688l-3.157 5.468a1.5 1.5 0 1 0 2.598 1.5l3.157-5.468-2.598-1.5zM63.5 162.5h6a1.501 1.501 0 0 1 0 3h-6v-3zm-15 0h-6a1.501 1.501 0 0 0 0 3h6v-3zm12.461 7.095l3.157 5.468a1.5 1.5 0 1 1-2.598 1.5l-3.157-5.468 2.598-1.5z" stroke="#164798" stroke-linecap="round"></path>
    <path d="M56 175.721c6.627 0 12-5.248 12-11.721s-5.373-11.721-12-11.721S44 157.527 44 164s5.373 11.721 12 11.721z" fill="#5C9FFF" stroke="#164798" stroke-linecap="round"></path>
    <path fill-rule="evenodd" clip-rule="evenodd" d="M54.5 156.674V150.5a1.502 1.502 0 0 1 2.56-1.061 1.5 1.5 0 0 1 .44 1.061v6.174h-3zm0 14.652v6.174a1.502 1.502 0 0 0 2.56 1.061 1.5 1.5 0 0 0 .44-1.061v-6.174h-3zm7.095-12.288l5.468-3.157a1.503 1.503 0 0 1 2.04.554 1.499 1.499 0 0 1-.54 2.044l-5.468 3.157-1.5-2.598zm-12.689 7.326l-5.468 3.156a1.5 1.5 0 0 0 1.5 2.598l5.468-3.157-1.5-2.597zm14.188-.001l5.468 3.157a1.5 1.5 0 0 1-1.5 2.598l-5.468-3.157 1.5-2.598zm-12.688-7.325l-5.468-3.157a1.504 1.504 0 0 0-1.67.102 1.517 1.517 0 0 0-.576.999 1.5 1.5 0 0 0 .746 1.497l5.468 3.157" fill="#5C9FFF"></path>
    <path d="M50.406 159.038l-5.468-3.157a1.504 1.504 0 0 0-1.67.102 1.517 1.517 0 0 0-.576.999 1.5 1.5 0 0 0 .746 1.497l5.468 3.157m5.594-4.962V150.5a1.502 1.502 0 0 1 2.56-1.061 1.5 1.5 0 0 1 .44 1.061v6.174h-3zm0 14.652v6.174a1.502 1.502 0 0 0 2.56 1.061 1.5 1.5 0 0 0 .44-1.061v-6.174h-3zm7.095-12.288l5.468-3.157a1.503 1.503 0 0 1 2.04.554 1.499 1.499 0 0 1-.54 2.044l-5.468 3.157-1.5-2.598zm-12.689 7.326l-5.468 3.156a1.5 1.5 0 0 0 1.5 2.598l5.468-3.157-1.5-2.597zm14.188-.001l5.468 3.157a1.5 1.5 0 0 1-1.5 2.598l-5.468-3.157 1.5-2.598z" stroke="#164798" stroke-linecap="round"></path>
    <path d="M160.5 170v37.5H1.5" stroke="#D6DBE4"></path>
    <path d="M160 169.5a9.5 9.5 0 0 0 9.5-9.5 9.5 9.5 0 0 0-9.5-9.5 9.5 9.5 0 0 0-9.5 9.5 9.5 9.5 0 0 0 9.5 9.5z" fill="#EAEEF2" stroke="#D6DBE4"></path>
    <path d="M160.5 150v-30.5" stroke="#D6DBE4"></path>
  </symbol>
  <symbol viewBox="0 0 142 32" fill="none" xmlns="http://www.w3.org/2000/svg" id="sintomas">
    <path d="M39.534 1.572c0-.827.663-1.49 1.492-1.49h3.854c4.31 0 7.293 2.939 7.293 6.829v.04c0 3.85-2.983 6.87-7.293 6.87h-3.854a1.482 1.482 0 0 1-1.492-1.49V1.572zm5.346 9.477c2.486 0 4.144-1.656 4.144-4.097V6.91c0-2.442-1.658-4.139-4.144-4.139h-2.32v8.277h2.32v.001zm9.49-9.477c0-.827.663-1.49 1.492-1.49h4.765c1.74 0 3.108.497 4.02 1.408.746.745 1.16 1.82 1.16 3.145v.041c0 2.152-1.077 3.476-2.735 4.18l2.114 2.565c.29.372.497.703.497 1.159 0 .827-.705 1.407-1.45 1.407-.705 0-1.12-.332-1.492-.787l-2.943-3.724h-2.403v2.938c0 .828-.663 1.49-1.492 1.49a1.482 1.482 0 0 1-1.492-1.49V1.572h-.041zm6.091 5.173c1.492 0 2.321-.786 2.321-1.945v-.04c0-1.283-.912-1.945-2.362-1.945h-2.984v3.931h3.025v-.001zm8.786 3.807c.994 0 1.699.745 1.699 1.655v.042c0 .951-.746 1.655-1.7 1.655-.952 0-1.698-.745-1.698-1.655v-.042c-.042-.952.704-1.655 1.699-1.655zM39.244 30.166c-.332-.248-.58-.662-.58-1.117 0-.786.621-1.407 1.409-1.407.373 0 .663.124.87.29 1.036.745 2.196 1.241 3.522 1.241 1.244 0 1.99-.496 1.99-1.283v-.041c0-.745-.456-1.159-2.777-1.738-2.776-.704-4.558-1.49-4.558-4.18v-.04c0-2.484 1.989-4.139 4.807-4.139 1.657 0 3.108.414 4.351 1.2.332.207.663.62.663 1.2 0 .786-.622 1.407-1.409 1.407-.29 0-.539-.083-.746-.207-.994-.58-1.948-.91-2.9-.91-1.161 0-1.783.538-1.783 1.2v.041c0 .91.58 1.2 2.943 1.821 2.776.745 4.35 1.738 4.35 4.097v.041c0 2.731-2.071 4.262-5.055 4.262-1.74-.124-3.564-.662-5.097-1.738zm12.474-10.883c0-.827.663-1.49 1.491-1.49.83 0 1.492.663 1.492 1.49v10.925c0 .827-.663 1.49-1.492 1.49a1.485 1.485 0 0 1-1.491-1.49V19.283zm5.967.042c0-.828.663-1.49 1.492-1.49h.331c.746 0 1.16.372 1.575.869l5.843 7.655v-7.117c0-.828.663-1.49 1.492-1.49s1.492.662 1.492 1.49v10.924c0 .828-.663 1.49-1.492 1.49h-.083c-.746 0-1.16-.373-1.575-.87l-6.05-7.903v7.325c0 .827-.663 1.49-1.492 1.49a1.482 1.482 0 0 1-1.492-1.49V19.325h-.041zm18.234 1.324h-2.901c-.746 0-1.41-.62-1.41-1.407 0-.745.623-1.407 1.41-1.407h8.827c.746 0 1.409.62 1.409 1.407 0 .745-.622 1.407-1.41 1.407h-2.9v9.559c0 .827-.663 1.49-1.492 1.49a1.482 1.482 0 0 1-1.492-1.49v-9.56h-.041v.001zm7.79 4.138c0-3.931 3.067-7.118 7.335-7.118 4.227 0 7.294 3.145 7.294 7.035v.041c0 3.89-3.067 7.076-7.335 7.076-4.227 0-7.293-3.144-7.293-7.034h-.001zm11.438 0c0-2.4-1.74-4.345-4.144-4.345-2.445 0-4.103 1.903-4.103 4.262v.041c0 2.36 1.74 4.304 4.144 4.304 2.445 0 4.103-1.904 4.103-4.262zm5.387-5.462c0-.828.663-1.49 1.492-1.49h.332c.663 0 1.119.33 1.367.786l3.647 5.918 3.688-5.96c.332-.496.746-.744 1.368-.744h.331c.829 0 1.492.662 1.492 1.49v10.883c0 .827-.663 1.49-1.492 1.49s-1.492-.704-1.492-1.49V23.38l-2.652 4.055c-.331.455-.704.745-1.243.745-.539 0-.953-.29-1.243-.745l-2.611-4.014v6.828c0 .828-.663 1.49-1.492 1.49s-1.45-.662-1.45-1.49V19.325h-.042zm15.748 10.345l4.807-10.8c.331-.745.953-1.2 1.782-1.2h.165c.83 0 1.41.455 1.74 1.2l4.808 10.8c.083.207.166.413.166.62a1.434 1.434 0 0 1-.422 1.028 1.437 1.437 0 0 1-1.028.421c-.705 0-1.161-.414-1.451-1.035l-.912-2.152h-6.05l-.953 2.235c-.249.58-.746.952-1.41.952a1.393 1.393 0 0 1-1.304-.867 1.409 1.409 0 0 1-.104-.54c0-.249.083-.455.166-.662zm8.495-3.807l-1.906-4.51-1.907 4.51h3.813zm6.423 4.303c-.331-.248-.58-.662-.58-1.117 0-.786.622-1.407 1.409-1.407.373 0 .663.124.87.29 1.036.745 2.197 1.241 3.523 1.241 1.243 0 1.989-.496 1.989-1.283v-.041c0-.745-.456-1.159-2.777-1.738-2.776-.704-4.558-1.49-4.558-4.18v-.04c0-2.484 1.989-4.139 4.807-4.139 1.658 0 3.108.414 4.351 1.2.332.207.663.62.663 1.2 0 .786-.621 1.407-1.409 1.407-.29 0-.539-.083-.746-.207-.994-.58-1.947-.91-2.9-.91-1.16 0-1.782.538-1.782 1.2v.041c0 .91.58 1.2 2.942 1.821 2.776.745 4.351 1.738 4.351 4.097v.041c0 2.731-2.072 4.262-5.056 4.262-1.74-.124-3.564-.662-5.097-1.738zM24.616 8.07c0-.58-.456-1.034-1.036-1.034h-9.615v-2.11h9.615a3.144 3.144 0 0 1 3.149 3.144v2.11h-2.113V8.07zM6.92 17.711v-.042H4.807v-9.6a3.146 3.146 0 0 1 3.15-3.145h2.113v2.11H7.957c-.58 0-1.036.456-1.036 1.035v9.642H6.92zm17.695-3.642h2.113v9.6a3.146 3.146 0 0 1-3.15 3.145h-2.113v-2.11h2.114c.58 0 1.036-.455 1.036-1.034v-9.601zm-7.004 10.635v2.11H7.998a3.145 3.145 0 0 1-3.15-3.144v-2.11h2.114v2.11c0 .579.456 1.034 1.036 1.034h9.614-.001zm10.775-13.655c1.74 0 3.15 1.448 3.15 3.144v3.31a3.145 3.145 0 0 1-3.15 3.146h-.746v-2.11h.746c.58 0 1.036-.456 1.036-1.035v-3.31c0-.58-.456-1.035-1.036-1.035h-7.045a2.819 2.819 0 0 1-2.818-2.814V7.904h2.113v2.441c0 .372.29.704.705.704h7.045zM7.79 13.159v-2.11h2.445c.373 0 .704-.29.704-.704V3.31A3.147 3.147 0 0 1 14.09.166h3.315c1.74 0 3.15 1.406 3.15 3.144v.745H18.44V3.31c0-.579-.456-1.034-1.036-1.034H14.09c-.58 0-1.036.455-1.036 1.034v7.035a2.82 2.82 0 0 1-2.818 2.814H7.79zm3.15 8.235a.698.698 0 0 0-.705-.704H3.149A3.145 3.145 0 0 1 0 17.545v-3.31a3.146 3.146 0 0 1 3.15-3.145h.745v2.11H3.15c-.58 0-1.036.455-1.036 1.035v3.31c0 .58.456 1.035 1.036 1.035h7.087a2.819 2.819 0 0 1 2.818 2.814v2.441H10.94v-2.441zM21.3 18.58v.041h2.444v2.11H21.3a.698.698 0 0 0-.704.704v7.035a3.146 3.146 0 0 1-3.15 3.145h-3.315a3.145 3.145 0 0 1-3.15-3.145v-.745h2.114v.703c0 .58.456 1.035 1.036 1.035h3.315c.58 0 1.036-.455 1.036-1.035v-7.034A2.819 2.819 0 0 1 21.3 18.58z" fill="#7B8BA5"></path>
  </symbol>
  <symbol viewBox="0 0 96 96" fill="none" xmlns="http://www.w3.org/2000/svg" id="triage">
    <path fill-rule="evenodd" clip-rule="evenodd" d="M75.278 13c-20.054-18.294-63.826-18.08-74 17-10.174 35.081 44.957 61.85 68.729 46.675C93.777 61.5 95.332 31.295 75.277 13h.001z" fill="#EAEEF2"></path>
    <path d="M74.5 27.5h-47a3 3 0 0 0-3 3v7a3 3 0 0 0 3 3h47a3 3 0 0 0 3-3v-7a3 3 0 0 0-3-3zm0 41h-47a3 3 0 0 0-3 3v7a3 3 0 0 0 3 3h47a3 3 0 0 0 3-3v-7a3 3 0 0 0-3-3zm0 13h-47a3 3 0 0 0-3 3v7a3 3 0 0 0 3 3h47a3 3 0 0 0 3-3v-7a3 3 0 0 0-3-3z" fill="#fff" stroke="#BBC4D3"></path>
    <path fill-rule="evenodd" clip-rule="evenodd" d="M25.823 40.5a1.5 1.5 0 0 0-.877.283l-9.722 7a1.496 1.496 0 0 0-.266 2.188 1.502 1.502 0 0 0 1.142.529h70a1.5 1.5 0 0 0 .924-2.682l-8.944-7c-.177-.138-.314-.318-52.257-.318z" fill="#2E85FF" stroke="#164798" stroke-linecap="round"></path>
    <path fill-rule="evenodd" clip-rule="evenodd" d="M84 46.5H17a4.485 4.485 0 0 0-3.182 1.318A4.486 4.486 0 0 0 12.5 51v13c0 1.243.504 2.368 1.318 3.182A4.484 4.484 0 0 0 17 68.5h67a4.485 4.485 0 0 0 3.182-1.318A4.484 4.484 0 0 0 88.5 64V51a4.485 4.485 0 0 0-1.318-3.182A4.486 4.486 0 0 0 84 46.5z" fill="#5C9FFF" stroke="#164798" stroke-linecap="round"></path>
    <path fill-rule="evenodd" clip-rule="evenodd" d="M33.5 50.5h-4v4h-4v4h4v4h4v-4h4v-4h-4v-4z" fill="#fff" stroke="#164798" stroke-linecap="round"></path>
    <path d="M44 58.5h33m-33-4h21-21z" stroke="#164798"></path>
  </symbol>
  <symbol viewBox="0 0 48 48" fill="none" xmlns="http://www.w3.org/2000/svg" id="twitter">
    <path d="M36 16.318c-.837.425-1.814.709-2.79.85 1.046-.637 1.813-1.63 2.232-2.835-.977.567-2.023.993-3.14 1.205a4.965 4.965 0 0 0-5.956-.938c-1.97 1.066-3.011 3.325-2.555 5.545-3.907-.212-7.675-2.055-10.117-5.245a4.885 4.885 0 0 0-.598 3.656 4.817 4.817 0 0 0 2.133 3.007c-.767 0-1.535-.142-2.232-.496.07 2.339 1.674 4.394 3.907 4.89-.698.213-1.465.213-2.233.071.698 2.056 2.582 3.473 4.675 3.544-2.024 1.701-4.745 2.481-7.326 2.056a13.7 13.7 0 0 0 14.666.472c4.577-2.694 7.25-7.797 6.892-13.16.977-.708 1.814-1.559 2.442-2.622z" fill="#92A0B6"></path>
  </symbol>
  <symbol viewBox="0 0 80 80" fill="none" xmlns="http://www.w3.org/2000/svg" id="verified">
    <path fill-rule="evenodd" clip-rule="evenodd" d="M25 68c18.948 5.304 34-3.5 41.5-14 9.476-13.268 17.757-42.185-13-52C30-5.5 2.93 13.467 1 36-.5 53.5 12.5 64.5 25 68z" fill="#EAEEF2"></path>
    <path d="M45.5 8.5h-33a4 4 0 0 0-4 4v48a4 4 0 0 0 4 4h33a4 4 0 0 0 4-4v-48a4 4 0 0 0-4-4z" fill="#fff" stroke="#BBC4D3"></path>
    <path fill-rule="evenodd" clip-rule="evenodd" d="M27.5 17.5h-5v6h-6v5h6v6h5v-6h6v-5h-6v-6z" fill="#5C9FFF" stroke="#164798" stroke-linecap="round"></path>
    <path fill-rule="evenodd" clip-rule="evenodd" d="M48.52 64.72l-4.242-4.242-9.9 9.9a2.99 2.99 0 0 0-.878 2.121c0 .768.293 1.536.878 2.121a2.99 2.99 0 0 0 3.27.652 2.99 2.99 0 0 0 .972-.652l9.9-9.9z" fill="#EAEEF2" stroke="#BBC4D3"></path>
    <path fill-rule="evenodd" clip-rule="evenodd" d="M16 43h28v1H16v-1zm0 6h25v1H16v-1zm0 6h13v1H16v-1z" fill="#BBC4D3"></path>
    <path d="M58 72.5c11.874 0 21.5-9.626 21.5-21.5S69.874 29.5 58 29.5 36.5 39.126 36.5 51 46.126 72.5 58 72.5z" fill="#EAEEF2" stroke="#BBC4D3"></path>
    <path d="M58 68.5c9.665 0 17.5-7.835 17.5-17.5S67.665 33.5 58 33.5 40.5 41.335 40.5 51 48.335 68.5 58 68.5z" fill="#fff" stroke="#BBC4D3"></path>
    <path fill-rule="evenodd" clip-rule="evenodd" d="M47 51.579L55.8 60 69 47.368 65.48 44l-9.68 9.263-5.28-5.052L47 51.579z" fill="#5C9FFF" stroke="#164798"></path>
  </symbol>
  <symbol viewBox="0 0 80 80" fill="none" xmlns="http://www.w3.org/2000/svg" id="who">
    <g clip-path="url(#clip0)" fill-rule="evenodd" clip-rule="evenodd" fill="#7B8BA5">
      <path d="M41.6.657c1.605 2.18-.401 4.216-.401 6.542l-.134 15.407c-.803.146-1.605.436-2.407.727v-.29l-.535-16.135c-.268-2.326-1.07-5.524 1.337-6.832.669-.145 1.605-.145 2.14.581zM11.111 18.89c.417-1.569 1.805-3.007 2.639-4.575 1.667-1.7 3.472-3.268 5.694-3.922L20 10c-1.805 3.268-5.555 6.666-8.889 8.889v.001zm55.683-5.141c1.457 1.529 2.477 3.334 3.206 5.14L65.337 15c-1.603-1.528-3.206-3.194-4.226-5 2.186.695 3.935 2.084 5.683 3.75v-.001zM45.556 10.46c-.124.325-.37.488-.618.651-.494 0-1.11-.326-1.605-.326.494-.162.988-.65 1.482-.65.247-.325.617 0 .74.325"></path>
      <path d="M51.548 14.612c1.093 2.163.82 5.19-.546 7.208-2.459 3.892-7.103 3.747-10.927 5.045-1.502.288-3.141 1.585-3.551 3.315-.137 1.441.82 2.45 1.776 3.171l.546.288.136 3.028c-2.321-.433-5.053-2.162-5.6-4.757-.136-1.442 0-2.883.547-4.036 2.732-5.478 9.151-3.892 13.385-6.775.41-.577.956-1.153 1.23-1.73-.547-.432-1.23-.865-2.05-1.009-.82-.432-1.775-.577-2.731-.865v-.865c1.776.433 3.414.865 4.917 1.874.136-.47.136-.97 0-1.44-.137-2.02-2.049-3.46-3.825-3.893-.273-.144-.683-.288-1.092-.144V10c3.141.144 6.146 1.585 7.785 4.612zm23.818 11.684c-.14.445-.14 1.037-.28 1.482-2.246-3.704-6.596-6.074-8.42-10.074 1.965 1.037 4.49 2.37 5.894 4.74.701 1.038 1.262 2.075 1.824 3.112 0-1.482-.562-2.815-.842-4.148-.842-2.223-.982-4.741-1.684-6.964 2.947 3.111 4.21 7.26 3.508 11.852zM54.95 13.84l.607.605c-.809 0-1.819-.202-2.223-1.01.606 0 1.414-.404 1.616.405zM7.665 23.825c.408 0 .408-.427.68-.711.544-1.422 1.632-2.558 2.857-3.553l4.354-3.269c-.817 2.558-3.266 4.975-5.443 6.68a40.01 40.01 0 0 0-3.129 3.695c-.544-4.264-.68-8.954 2.041-12.223.408 3.411-.68 6.254-1.36 9.38"></path>
      <path d="M78.556 30.162l-1.986 6.363v.142c-.611-1.273-.917-2.546-1.833-3.677l-3.21-4.242C70.765 27.333 70 25.92 70 24.364l3.514 3.96c1.375 1.696 1.834 3.817 2.903 5.656.458-2.829 0-6.08.458-8.91.153-1.414.612-2.545.459-3.959 1.375 2.687 1.986 6.08 1.222 9.05v.001zm-74.78 1.111c.152 1.273-.303 2.687.304 3.818.152-.566.152-1.13.455-1.697.911-2.97 2.884-5.657 5.465-8.202-.455 4.808-5.313 7.92-5.92 12.586C2.258 33.11-.778 27.172 2.713 22.222c.152 3.111.608 6.081 1.063 9.05v.001zM53.178 27.5l-.356.278c-.71-.278-.356-.833-.356-1.11.356.277.712.277.712.832zm-.04 1.072c0 .158-.173.158-.173.317h-.697c-.175-.476.174-.952.697-1.11 0 .316.697.634.174.793h-.001zM40.98 43.992c-.654.15-1.177.452-1.83.452l-.262-14.8c.653-.453 1.569-.453 2.222-.755l-.13 11.176v3.927zm12.352-13.34c0 .325-.473.65-.71.325 0-.326-.712-.65-.238-.977.475 0 .712.326.948.651z"></path>
      <path d="M.304 31.111c.843 4.028 3.797 7.222 4.782 11.25.281.695.422 1.528.844 2.222.281-1.11.14-2.36.281-3.61.281-2.778.844-5.556 2.532-7.918.844 5-2.25 8.75-2.11 13.612l-4.22-5.417C.443 38.333-.54 34.722.303 31.111h.001zm37.474.37v1.852c-.556-.37-1.111-.864-1.111-1.48 0-.248 0-.495.277-.74l.834.37v-.002zm41.155 7.021l-1.42 2.61-3.266 4.637-1.136 2.03c.284-5.508-2.698-10.146-1.846-15.798 1.846 3.913 3.124 8.115 2.698 12.753.568-.58.568-1.159.852-1.739l1.988-4.637c.994-2.32 1.988-4.783 2.84-7.247.852 2.464 0 5.072-.71 7.391zm-32.571-.376c1.18.875 1.622 2.334 1.327 3.94-.295 1.166-1.032 2.48-2.212 3.063-1.623.73-3.392 1.021-5.162 1.605-.59.438-1.622.875-1.622 1.751v2.626c-1.033-.292-1.77-1.313-1.918-2.334-.295-1.168 0-2.48 1.032-3.21 2.213-1.605 5.163-1.314 6.932-3.502.295-.438.148-1.167-.147-1.605-.442-.584-1.032-.73-1.622-1.167v-2.626c1.327.146 2.36.73 3.392 1.46zM27.737 40c-.535 0-1.07-.11-1.07-.333.267-.222.267-.556.535-.778 1.07.111.267.778.535 1.111zm11.152.477c-.325 0 0 .863-.65.575-.326-.287-.652-.575-.326-.863.325-.288.976-.288.976.288zm-11.134.592c-.71.153-1.066-.152-1.066-.305 0-.306.356-.459.71-.764.712.305 0 .764.356 1.07"></path>
      <path d="M42.066 41.111c.156.247.156.494.156.741-.312.247-.625.37-1.093.37-.156-.37.781-.617.468-1.11.157.123.313 0 .469 0zm28.027 13.033c1.543-1.164 2.006-2.763 3.086-4.07l3.395-3.78c.772-1.019 1.544-1.746 2.315-2.763-.617 5.38-5.093 9.594-9.722 12.938l-1.39 1.31c1.39-3.199 1.544-7.416.773-10.904-.155-1.6.462-3.199.925-4.653.772 3.634 1.852 8.141.618 11.922zM5.48 49.46c1.037 1.54 2.074 3.08 3.26 4.62-.149-3.85-.741-8.316.592-11.859.741 1.078.741 2.464 1.037 3.696l.148 1.85v7.392c0 .924.445 1.694.593 2.618l-4.444-3.543C3.11 50.847.592 46.997 0 42.222l5.481 7.24-.001-.002zm32.948-5.227c0 .15-.324.3-.65.15.326-.3.326-.75.976-1.05.326.3 0 .6-.326.9zm-.85-.01l-.355.221c-.356-.22 0-.888-.356-1.11.71 0 .356.666.71.89h.001zm-22.147-.71c.301.31 0 .62-.302.931-.3-.31-.904-.466-.602-.93 0-.31.904-.157.904 0zm25.495 20.28c-.37.287-.186.43-.556.573-.555.287-.926-.286-1.111-.573l-.185-9.458-.185-4.73c.555-.43 1.481-.43 2.222-.716v4.586l-.185 10.318z"></path>
      <path d="M65.616 61.743c-.141.458-.424.762-.424 1.068a85.059 85.059 0 0 0 12.586-9.609c-2.121 7.778-10.04 9.303-15.556 12.354 3.253-4.576 2.546-10.98 5.94-15.556-.142 4.27-.708 8.388-2.546 11.743zm-51.69-8.353c1.333 3.685 1.63 7.812 3.852 11.054-4.297-1.768-9.037-2.948-12.593-6.633-1.333-1.473-2.37-2.947-2.963-4.716.148-.147.297 0 .297.148 3.259 2.947 6.962 4.274 10.222 7.074.889.59 1.481 1.474 2.37 1.77-.445-1.622-1.481-3.096-2.074-4.718-.74-2.21-1.334-4.716-1.037-7.369.889.884 1.333 2.21 1.926 3.39zm23.852-1.239a.465.465 0 0 1-.494 0l-.124-.189h-.123c-.247-.284-.37-.567-.37-.85.247.377.864.661 1.11 1.04"></path>
      <path d="M35.932 7.053c-6.532.599-12.07 3.593-16.898 8.684L22.3 19.03c3.692-3.893 8.094-5.84 12.78-7.337l.852-.3v2.995c-1.846 1.048-3.124 3.444-4.97 4.192a24.781 24.781 0 0 1-3.266 2.097c-.426-.3-.852.15-1.136.449l-.568 1.347c-.142-.3 0-.6.142-.898-.284 0-.71.15-.994.15.71-.45 1.846-.75 1.704-1.797.142-1.647 1.136-2.995 1.704-4.492 0-.15.142-.3.142-.3-2.13 1.049-3.976 2.696-5.822 4.493.426.599.994 1.048 1.42 1.647l-.284.299-1.42-1.497c-3.976 4.34-5.822 9.88-5.964 15.87h4.402c0-4.94 1.704-9.133 4.686-12.726l-.142-.15.142-.3.284.15c2.84-3.144 6.248-4.79 10.082-5.54v.899c-3.692.599-6.816 2.246-9.656 5.24l3.834 4.043c.71-.9 1.562-1.348 2.414-1.947.284.3 0 .749-.284.898-2.272 1.498-3.692 3.893-4.402 6.438.284.15.426-.748.994-.598.284 0 0-.45.426-.3.142.3.142 1.048.142 1.497.284 1.947 1.704 4.043 3.55 4.94l.994.3c-.142.15-.71.3-.71.749 0 .15-.142.3-.142.45.284.299-.284.748 0 1.047.426-.3 1.136-.748 1.136-1.347.426-.6.994-.748 1.562-.898.142.15.284.15.426.449 0 .15-.142.15-.284.3l-1.136 1.047-.284-.15-3.976 4.192c.994 1.198 2.272 1.797 3.55 2.396-.142.15-.142.599-.284.45-1.278-.6-2.556-1.348-3.55-2.546l-3.266 3.444c.426.299.426 1.347 1.136 1.497.426.3.426.599.426 1.048 2.414 1.796 5.112 2.994 7.952 3.294v.599c-2.982-.15-5.822-1.348-8.378-3.145-1.278-.45-1.988.9-3.266.75-.426-.15-.994-.3-1.562-.15l-.568.598c3.834 4.193 8.52 6.289 13.774 6.738l-.142.748c-5.112-.45-9.798-2.545-13.632-6.438l-.568-.45-3.124 3.295c4.97 5.54 11.076 8.385 18.034 8.834 7.668 0 14.342-2.696 19.88-8.235 0-.15.143-.3.143-.3l-3.266-3.443c-1.704 1.797-3.834 3.294-5.964 4.492-.994.599-1.705 1.497-2.84 1.796l-.427-.45c-1.42.3-2.84.75-4.26.9l-.142-.75c.994-.15 2.13-.3 3.124-.598 0-.6-.852-.898-1.278-1.198-.426-.45-.852-1.048-.568-1.797.568.749.994 1.797 1.846 1.947.994-.898.426-2.545.426-3.743-.284-.3-.71 0-.994 0 .284.3.284.898.426 1.347.142.3 0 .6.142.899-.426-.15-.71-.75-.994-1.198-.284-.3-.426-.75-.852-.75l-.993.3v-.748c.141 0 .283 0 .567-.15-1.135 0-.426-1.198-.567-1.796.71.3 1.42.898 1.845 1.497.284-.15.852-.15.71-.45-.71-.898-1.562-1.646-2.555-2.095v-3.144c2.271-.75 4.686-1.797 5.68-4.342.425-1.947.283-4.192-1.137-5.54-1.278-1.198-2.84-1.946-4.402-2.396v-5.69c.284-.148.568-.298.852-.448.426.599-.568 1.497.426 1.797.568 0 .568-.6.71-.9 0-.3.284-.747.568-.897.568 0 .71-.898 1.42-.6l5.254-5.54c-.283-.3.143-.747.143-1.047l.568.45c.141-.6 1.562-1.048.71-1.797l-.427-.45c.568-1.796.427-3.892-.426-5.39 0-.15.143-.3.284-.448.569.449 1.136 1.197 1.989 1.048.426.598 1.136 1.197.994 2.096.142.3.425.599.851.599l2.84-2.995c-4.402-5.09-9.94-7.486-16.046-8.384V5.705c9.799.899 19.88 9.283 23.289 19.314 4.402 12.128.994 25.902-8.236 34.586-4.97 4.342-10.509 6.887-17.183 7.037-7.384.299-13.774-2.096-19.17-6.887-9.088-8.385-12.638-21.71-8.378-33.688C14.206 17.683 21.874 9.45 29.826 7.053c1.988-.75 3.976-1.198 6.106-1.497v1.497zm-5.538 8.384c-.284.15-.426.3-.426.6.142.149.142.598.568.448.284-.15.568-.3.426-.6-.142-.298-.426-.598-.568-.448zm27.548.3l-2.84 2.994.71.899c.71.599.71 1.946 1.847 2.096.283 1.347 1.562 2.245 2.272 3.443.426.898-.71.6-.995 1.198a21.32 21.32 0 0 1 1.847 9.582h4.544c-.142-7.636-2.556-14.523-7.385-20.212zm-39.192.3c-4.828 5.689-7.242 12.426-7.526 19.912h4.544c.284-6.288 2.272-11.828 6.248-16.47-1.136-1.197-2.13-2.395-3.266-3.443zm33.228 6.138l-.994.898c1.279 1.347 1.847 3.144 3.266 4.192 0 .749.285 1.198.426 1.797-.283.299.143.599.143.898.142-.3 0-.898.284-1.048.994.599 0 1.647.141 2.545.426 1.348.426 2.995.71 4.492h4.118c0-3.144-.568-6.138-1.703-8.834-.142 0-.284.15-.427.15-.568-.6-.851-1.497-1.277-2.246-.285-.15-.71-.15-.995-.15-.141 0-.426-.45-.567-.3-.427-.448-1.136-.15-1.563-.448-.283-.898-1.136-1.198-1.562-1.946zm-22.01 5.54l-3.834-3.893c-2.982 3.443-4.26 7.486-4.544 12.127h3.124c.284-.45.71-.6.994-.9.142-.897 1.136-.747 1.562-1.645.568-1.947 1.42-3.893 2.698-5.54v-.15zm20.307-3.893l-3.55 3.892c.284.45.567 1.198 1.135 1.049 0 .149-.142.299-.283.299.426.749 1.277.898 1.988.898.425.15.283.599.425.899.71.449 0 1.197.285 1.796.426-.15.71-.898 1.277-.748.568.3.143 1.047.426 1.497.994.15 1.279-.9 1.562-1.497.427.898-.283 1.796-.851 2.395-.285.15-.569.15-.853.3 0 .598-.425 1.197-.852 1.347h4.119c0-.6 0-1.497-.142-2.096-.142.15-.426.599-.71.45-.143-.9-.143-2.247.142-3.295-.143-.15-.143-.748-.426-.6-.142-1.196-1.563-1.795-1.563-2.843h.568l-.426-.75c0 .15 0 .3-.142.45-.852-.3-.71-1.198-.993-1.946-.569-.3-.427-1.198-1.136-1.497zm-4.119 4.49h-.142c.284 0 .284.15.427.15l-.285-.15zm-.851.9l-.853.748c.426.3.853 0 1.42.15.426.15-.142.749.284 1.048 0-.15.142 0 .142 0 .143-.3 0-.6-.142-.898.285-.3.71-.3.994-.45.142-.3-.141-.45-.141-.598-.427.149-.995 0-1.279.299-.142 0-.425 0-.425-.3zm-1.42.748c-.142-.15.283-.3.283-.45l-.284.45h.001zm-32.661 6.588c.284 7.635 2.556 14.373 7.526 19.913 1.136-1.198 2.272-2.246 3.266-3.444l-1.562-1.647c-.284-.15-.568 0-.852-.15 0-.598-.142-1.197-.284-1.796-.568-.6-1.42-.6-2.13-.75-.426-.3-.852-.897-.71-1.346.284-1.198-.994-1.198-1.42-1.947-.568 0-.71-.45-.994-.75-.284.15-.568.45-.852.3-.142-.3-.142-.897 0-1.047.426-1.048 1.278-.6 1.988-.6.426-.298.852-.448 1.278-.598-.426-1.946-.71-4.042-.71-6.138h-4.544zm9.656 0h-4.26c0 2.246.284 4.192.852 6.138.568.15.994.45 1.42.75 0-.45-.284-.75-.142-1.05.426-.45.284-1.047.284-1.646.142-1.048 1.278-1.497 1.988-2.096l-.142-2.096zm.71 0l.284 2.096c.426.3.852.599 1.42.749.568-.3.852-1.048.994-1.797.426-1.797-1.704-.6-2.698-1.048zm4.686.15c-.568.15-.426 1.048-1.136 1.197 0 .599-.284 1.049-.71 1.498-.142.299-.284.599 0 .748.568.3.426 1.048.426 1.647.852.6.568 1.797.284 2.545.852.6.994 1.647 1.278 2.546-.284.15-.426.449-.284.898 0 .3.284.3.568.3.994-1.198 2.272-2.247 3.266-3.445-1.846-2.395-2.84-4.94-2.982-7.935-.284-.15-.426 0-.71 0zm24.282-.15c-.142.748.284 1.497.284 2.096 0 .15.142.449.285.449.284 0 .142-.3.425-.45.568 0 .994.45 1.42.75l-.283.449c-.569.15-.853.748-1.42.748-.427.899-1.704.6-1.989 1.647-.141.15-.283.6-.568.3.285 1.347-1.42 1.197-1.846 2.095.426-.748 1.42 0 1.562-.898.284-.3.426-.15.71 0-.141.75-.284 1.497-.284 2.246-.142.15-.283.749-.568.749 0 0 0 .15.142.15.143-.3.426-.6.569-.75 1.278.15.283 1.947 1.136 2.546 3.124-3.444 4.686-7.336 4.97-12.127h-4.545zm5.254 0c-.283 4.94-1.845 9.282-4.97 12.726l.569.749v-.15a.415.415 0 0 1 .567 0c-.142 1.198 1.279 1.796 1.847 2.695 3.976-4.492 5.964-9.732 6.247-16.02h-4.26zm4.97 0c-.141 6.438-2.271 11.978-6.39 16.619l3.267 3.443.852-1.048c4.26-5.39 6.674-11.678 6.816-19.014h-4.545zm-33.228.15l.142 1.197c.142-.3.142-.6.142-1.048l-.284-.15zm.426 2.695c.426 1.796 1.278 3.293 2.414 4.64l1.988-2.095c0-.15-.142-.3-.284-.45-.994-.3-.852-1.496-1.846-1.946-.142.3-.568 0-.852.15-.284-.6-.994 0-1.42-.3zm19.738 7.486c-.426.299-1.136.299-1.704.15l-.141.299c.71.299 1.42 0 2.13-.15l-.285-.3zm2.698 2.844L49.28 50.77c0 .6.568.898.995 1.198-.142.6-.142 1.198-.71 1.647.142 1.048-.71 1.797-.426 2.994 1.562-.898 2.981-2.096 4.26-3.593l-.995-1.048c0 .3-.141.6-.284.748-.568-.15-.71-.748-.851-1.347.567-.748-.568-1.048-.853-1.647zm-27.69 2.695h-.142l-.142-.15s.142.15.284.15zm35.37 13.922c.422 0 .987-.287 1.41-.431 4.515-1.295 9.453-1.726 13.263-4.745l.564-.576c-.14.72-.564 1.294-.846 2.013-1.834 2.3-4.374 3.308-6.773 4.027-3.104 1.15-6.913.43-10.158 1.15l1.41-2.3 3.245-6.76 2.964-3.162c-.847 3.882-2.964 7.333-5.08 10.784h.001zm-39.859-7.993c1.653 2.292 2.755 4.737 3.581 7.487.69.916 1.102 1.985 1.515 3.055-.275 0-.689-.153-.964-.305l-5.096-.306c-2.342-.153-4.27-1.222-6.336-1.986-1.653-1.07-3.306-2.597-4.27-4.43 1.377.763 2.892 1.68 4.545 2.138l5.785 1.68c.827 0 1.378.612 2.066.917.964.306 1.791.764 2.755.917-2.204-3.361-4.82-6.722-5.234-10.847.551.305 1.24.916 1.653 1.68z"></path>
      <path d="M37.778 68.956c-.732.555-1.61.97-2.342 1.526-1.757-.14-3.513.277-5.123.554-4.685 1.11-10.832 2.219-15.077-.554l-1.903-1.11c1.317.278 2.635.833 4.245.833 1.61.138 3.513.138 4.977-.417l5.562-1.664c3.22-.554 6.88-.554 9.66.832h.001zm22.068 1.8c2.467.134 4.79.134 6.82-.806-2.902 2.418-6.675 3.224-10.739 3.09-4.644-.807-8.997-2.42-13.932-1.747-2.322.672-4.644 1.075-6.53 2.687-1.016.672-2.032 1.746-3.048 2.687a2.87 2.87 0 0 0-1.306-.672c5.37-4.836 11.61-8.06 19.302-6.851 3.192.403 6.095 1.612 9.433 1.612z"></path>
      <path d="M46.667 77.397c-.297.254-.593.254-.889.38-1.185-1.523-2.272-2.92-3.556-4.063.296-.254.593-.127.89-.38 1.184 1.269 2.567 2.54 3.555 4.063z"></path>
    </g>
    <defs>
      <clipPath id="clip0">
        <path fill="#fff" d="M0 0h80v80H0z"></path>
      </clipPath>
    </defs>
  </symbol>
  <symbol viewBox="0 0 36 48" fill="none" xmlns="http://www.w3.org/2000/svg" id="youtube">
    <g clip-path="url(#clip0)">
      <path d="M33.387 16.484c1.011.27 1.888 1.085 2.158 2.102.607 2.51.607 9.36 0 11.803-.27 1.017-1.147 1.831-2.158 2.102-2.495.68-16.32.68-18.748 0-1.012-.27-1.888-1.085-2.158-2.102-.675-2.646-.607-9.225 0-11.803.27-1.017 1.146-1.83 2.158-2.102 2.63-.679 16.455-.61 18.748 0zm-11.665 4.12v7.77l6.019-3.887-6.019-3.884z" fill="#92A0B6"></path>
    </g>
    <defs>
      <clipPath id="clip0">
        <path fill="#fff" d="M0 0h36v48H0z"></path>
      </clipPath>
    </defs>
  </symbol>
</svg>